<?xml version="1.0" encoding="UTF-8" standalone="no"?>
<svg
   xmlns:dc="http://purl.org/dc/elements/1.1/"
   xmlns:cc="http://creativecommons.org/ns#"
   xmlns:rdf="http://www.w3.org/1999/02/22-rdf-syntax-ns#"
   xmlns:svg="http://www.w3.org/2000/svg"
   xmlns="http://www.w3.org/2000/svg"
   xmlns:sodipodi="http://sodipodi.sourceforge.net/DTD/sodipodi-0.dtd"
   xmlns:inkscape="http://www.inkscape.org/namespaces/inkscape"
   viewBox="0 0 465.69333 144.77333"
   height="144.77333"
   width="465.69333"
   xml:space="preserve"
   id="svg2"
   version="1.1"
   inkscape:version="0.91 r13725"
   sodipodi:docname="CULogo187.svg"><sodipodi:namedview
     pagecolor="#ffffff"
     bordercolor="#666666"
     borderopacity="1"
     objecttolerance="10"
     gridtolerance="10"
     guidetolerance="10"
     inkscape:pageopacity="0"
     inkscape:pageshadow="2"
     inkscape:window-width="1920"
     inkscape:window-height="1017"
     id="namedview35"
     showgrid="false"
     inkscape:zoom="1.5289032"
     inkscape:cx="322.33637"
     inkscape:cy="75.643884"
     inkscape:window-x="-8"
     inkscape:window-y="-8"
     inkscape:window-maximized="1"
     inkscape:current-layer="svg2" /><metadata
     id="metadata8"><rdf:RDF><cc:Work
         rdf:about=""><dc:format>image/svg+xml</dc:format><dc:type
           rdf:resource="http://purl.org/dc/dcmitype/StillImage" /></cc:Work></rdf:RDF></metadata><defs
     id="defs6"><clipPath
       id="clipPath20"
       clipPathUnits="userSpaceOnUse"><path
         id="path18"
         d="M 0,1085.82 V 0 h 3492.66 v 1085.82" /></clipPath></defs><g
     transform="matrix(1.3301388,0,0,-1.3301388,0.55787226,144.5999)"
     id="g10"><g
       transform="scale(0.1,0.1)"
       id="g12"><g
         id="g14"><g
           clip-path="url(#clipPath20)"
           id="g16"><path
             id="path22"
             style="fill:#B31B1B;fill-opacity:1;fill-rule:nonzero;stroke:none"
             d="m 1526.24,472.703 -5.21,-12.422 c -10.42,-5.273 -20.61,-9.101 -30.59,-11.465 -9.97,-2.363 -20.83,-3.554 -32.59,-3.554 -13.8,0 -26.62,1.738 -38.46,5.215 -11.84,3.457 -22.18,8.437 -31.05,14.882 -8.85,6.465 -16.09,13.692 -21.71,21.719 -5.6,8.008 -9.88,16.719 -12.82,26.113 -2.94,9.395 -4.4,19.707 -4.4,30.918 0,28.414 9.91,51.95 29.72,70.606 19.8,18.66 46.86,27.988 81.13,27.988 8.1,0 15.6,-0.476 22.51,-1.414 6.89,-0.934 15.3,-2.715 25.23,-5.348 9.93,-2.636 16.01,-4.175 18.24,-4.621 -1.95,-4.898 -3.41,-9.722 -4.39,-14.445 -1.42,-7.582 -2.4,-16.371 -2.93,-26.363 l -8.31,0 -0.13,15.84 c -0.9,8.773 -5.73,15.3 -14.51,19.597 -8.79,4.293 -21.67,6.442 -38.62,6.442 -12.67,-0.164 -23.42,-1.789 -32.25,-4.868 -8.84,-3.085 -16.62,-7.929 -23.35,-14.554 -6.74,-6.641 -12.25,-15.059 -16.53,-25.25 -4.29,-10.203 -6.47,-23.004 -6.56,-38.403 0,-26.984 8.24,-48.683 24.73,-65.109 16.48,-16.445 38.28,-24.648 65.37,-24.648 12.2,0 23.52,1.679 33.96,5.058 7.12,2.285 14.2,5.938 21.24,10.899 l 2.28,-2.813"
             inkscape:connector-curvature="0" /><path
             id="path24"
             style="fill:#B31B1B;fill-opacity:1;fill-rule:nonzero;stroke:none"
             d="m 1555.74,520.438 c 0,-10.938 1.83,-22.051 5.48,-33.34 3.64,-11.289 8.92,-19.532 15.82,-24.727 6.89,-5.195 14.39,-7.793 22.5,-7.793 10.32,0 18.95,4.082 25.89,12.266 6.94,8.164 10.41,20.742 10.41,37.734 0,14.121 -2.07,26.328 -6.21,36.594 -4.13,10.273 -9.4,17.508 -15.82,21.73 -6.4,4.231 -13.47,6.336 -21.23,6.336 -10.94,0 -19.82,-3.949 -26.62,-11.855 -6.82,-7.922 -10.22,-20.227 -10.22,-36.945 z m -25.26,-9.922 c 0,19.933 6.35,36.203 19.05,48.8 12.71,12.598 28.99,18.903 48.87,18.903 18.72,0 33.96,-5.879 45.72,-17.633 11.77,-11.75 17.65,-26.926 17.65,-45.539 0,-13.008 -3.02,-24.883 -9.09,-35.664 -6.06,-10.781 -14.62,-19.199 -25.67,-25.313 -11.05,-6.093 -23.22,-9.14 -36.5,-9.14 -10.34,0 -19.1,1.738 -26.27,5.215 -7.18,3.457 -12.98,7.832 -17.44,13.085 -4.46,5.254 -7.85,10.645 -10.17,16.153 -4.1,9.707 -6.15,20.078 -6.15,31.133"
             inkscape:connector-curvature="0" /><path
             id="path26"
             style="fill:#B31B1B;fill-opacity:1;fill-rule:nonzero;stroke:none"
             d="m 1670.4,448.914 0,7.656 c 10.12,0.176 15.59,0.352 16.4,0.528 1.53,0.254 2.67,0.683 3.43,1.269 0.76,0.586 1.37,1.406 1.82,2.481 0.88,2.05 1.43,5.273 1.61,9.629 0.44,23.828 0.67,36.269 0.67,37.343 l 0,15.918 c 0,7.149 -0.23,14.817 -0.67,23.028 -0.18,5.254 -0.55,8.379 -1.11,9.355 -0.58,0.988 -1.58,1.731 -3.03,2.219 -1.44,0.488 -7.15,0.687 -17.13,0.601 l 0,7.649 c 17.8,2.461 30.79,5.68 38.98,9.644 1.76,0.879 2.95,1.313 3.58,1.313 0.61,0 1.09,-0.223 1.44,-0.668 0.36,-0.445 0.54,-1.113 0.54,-2.016 0,-0.621 -0.04,-1.336 -0.1,-2.14 -0.32,-5.453 -0.5,-13.911 -0.57,-25.34 4.02,4.617 7.73,9.207 11.11,13.75 3.4,4.531 5.86,7.469 7.39,8.808 2.67,2.321 5.76,4.157 9.24,5.536 3.49,1.382 7.1,2.07 10.85,2.07 3.75,0 7.46,-0.801 11.13,-2.406 l 0.8,-1.86 c -1.37,-11.851 -2.14,-22.258 -2.33,-31.261 l -6,0 c -2.06,4.269 -4.45,7.382 -7.18,9.335 -2.71,1.946 -6.13,2.93 -10.23,2.93 -6.88,0 -12.73,-2.832 -17.55,-8.476 -4.83,-5.653 -7.23,-14.121 -7.23,-25.43 l 0,-13.75 c 0,-5.879 0.22,-16.602 0.67,-32.168 0.09,-5.527 0.31,-9.043 0.67,-10.547 0.35,-1.523 0.82,-2.617 1.4,-3.281 0.58,-0.664 1.52,-1.231 2.87,-1.66 2.67,-0.821 9.89,-1.621 21.64,-2.403 l 0,-7.656 c -15.66,0.664 -28.99,0.996 -40.02,0.996 -11.4,0 -22.43,-0.332 -33.09,-0.996"
             inkscape:connector-curvature="0" /><path
             id="path28"
             style="fill:#B31B1B;fill-opacity:1;fill-rule:nonzero;stroke:none"
             d="m 1778.92,448.914 0,7.656 12.71,0.137 c 1.87,0.078 3.32,0.41 4.35,0.996 1.03,0.586 1.81,1.309 2.34,2.207 0.98,1.778 1.61,4.961 1.88,9.492 0,1.172 0.22,13.985 0.66,38.418 l 0,15.918 c 0,7.149 -0.22,14.817 -0.66,23.028 -0.26,5.254 -0.69,8.379 -1.25,9.355 -0.57,0.988 -1.55,1.731 -2.95,2.219 -1.41,0.488 -7.1,0.687 -17.08,0.601 l 0,7.649 c 17.8,2.461 30.8,5.68 39,9.644 1.75,0.879 2.94,1.313 3.56,1.313 0.61,0 1.1,-0.223 1.45,-0.668 0.35,-0.445 0.53,-1.113 0.53,-2.016 0,-0.621 -0.02,-1.336 -0.09,-2.148 -0.19,-3.219 -0.39,-10.024 -0.57,-20.403 l 24.86,21.227 c 7.3,2.672 14.22,4.008 20.72,4.008 7.22,0 14.06,-1.469 20.52,-4.406 6.46,-2.93 11.32,-6.629 14.56,-11.086 3.26,-4.438 5.41,-10.055 6.49,-16.813 0.62,-4.012 0.93,-15.183 0.93,-33.535 l 0,-23.633 c 0,-11.562 0.22,-19.433 0.67,-23.633 0.45,-2.675 1.15,-4.511 2.09,-5.527 0.94,-1.035 2.4,-1.68 4.39,-1.953 l 14.46,-0.391 0,-7.656 c -8.66,0.664 -15.84,0.996 -21.59,0.996 -4.94,0 -13.14,-0.332 -24.61,-0.996 0.88,22.031 1.32,35.938 1.32,41.738 l 0,22.481 c 0,13.984 -0.53,23.164 -1.6,27.539 -1.51,5.969 -4.94,10.793 -10.27,14.445 -5.33,3.653 -11.78,5.477 -19.33,5.477 -6.67,0 -12.77,-1.602 -18.27,-4.793 -5.52,-3.223 -9.46,-6.887 -11.81,-11.028 -2.36,-4.128 -3.53,-11.113 -3.53,-20.898 l 0,-16.152 c 0.44,-23.164 0.66,-35.664 0.66,-37.539 0.18,-4.454 0.72,-7.696 1.61,-9.746 0.36,-0.801 0.9,-1.504 1.61,-2.071 0.72,-0.586 1.84,-1.055 3.36,-1.406 0.54,-0.098 5.46,-0.215 14.76,-0.391 l 0,-7.656 c -10.82,0.664 -20.62,0.996 -29.4,0.996 -7.47,0 -19.62,-0.332 -36.48,-0.996"
             inkscape:connector-curvature="0" /><path
             id="path30"
             style="fill:#B31B1B;fill-opacity:1;fill-rule:nonzero;stroke:none"
             d="m 1961.55,524.383 c 2.5,-0.235 7.22,-0.469 14.18,-0.672 13.28,-0.449 22.42,-0.676 27.42,-0.676 11.87,0 19.67,0.227 23.42,0.676 0.08,2.117 0.13,3.75 0.13,4.91 0,13.977 -2.87,24.25 -8.57,30.797 -5.7,6.547 -13.32,9.82 -22.87,9.82 -10.08,0 -18.2,-3.593 -24.36,-10.781 -6.13,-7.187 -9.25,-18.555 -9.35,-34.074 z m 85.76,-54.453 -4.28,-9.629 c -6.13,-3.848 -10.6,-6.406 -13.44,-7.656 -4.17,-1.875 -8.96,-3.477 -14.33,-4.766 -5.39,-1.309 -11.04,-1.953 -16.99,-1.953 -11.74,0 -22.35,2.441 -31.86,7.344 -9.51,4.882 -16.91,12.207 -22.19,21.933 -5.29,9.727 -7.93,21.133 -7.93,34.199 0,10.215 1.39,19.453 4.2,27.676 2.8,8.234 5.98,14.289 9.53,18.195 2.6,2.852 6.59,6.114 12.02,9.797 5.43,3.688 10.8,6.61 16.15,8.746 7.03,2.93 14.63,4.403 22.81,4.403 9.96,0 18.97,-2.274 27.01,-6.809 8.05,-4.543 13.95,-10.722 17.68,-18.539 3.73,-7.844 5.6,-16.691 5.6,-26.555 0,-2.5 -0.21,-5.527 -0.66,-9.082 -6.43,-1.25 -12.19,-2.07 -17.27,-2.422 -9.62,-0.722 -19.25,-1.074 -28.88,-1.074 l -42.93,0 c 0.17,-12.715 2.38,-23.008 6.62,-30.859 4.24,-7.871 10.08,-13.652 17.54,-17.383 7.44,-3.73 15.17,-5.605 23.2,-5.605 5.43,0 10.86,0.879 16.25,2.617 5.39,1.777 12.07,5 20,9.687 l 2.15,-2.265"
             inkscape:connector-curvature="0" /><path
             id="path32"
             style="fill:#B31B1B;fill-opacity:1;fill-rule:nonzero;stroke:none"
             d="m 2059.18,448.914 0,7.656 12.66,0.137 c 1.97,0.078 3.48,0.41 4.49,0.996 1.06,0.586 1.84,1.309 2.37,2.207 0.99,1.778 1.58,4.942 1.75,9.492 0.06,1.153 0.28,13.946 0.67,38.36 l 0,55.472 c 0,14.879 -0.22,30.25 -0.67,46.11 -0.35,10.695 -0.86,16.668 -1.48,17.91 -0.45,0.894 -1.17,1.516 -2.17,1.887 -1.35,0.621 -7.54,0.929 -18.61,0.929 l 0,7.645 c 19.94,2.527 33.79,5.691 41.56,9.484 1.15,0.539 2.03,0.817 2.66,0.817 0.6,0 1.09,-0.2 1.44,-0.598 0.35,-0.402 0.53,-0.957 0.53,-1.672 0,-0.625 -0.08,-1.512 -0.23,-2.676 l -0.12,-4.41 c -0.41,-15.937 -0.65,-29.523 -0.72,-40.742 l -0.24,-20.848 0,-69.328 c 0.35,-23.164 0.59,-35.683 0.65,-37.558 0.09,-4.454 0.62,-7.696 1.6,-9.746 0.37,-0.801 0.9,-1.485 1.6,-2.071 0.72,-0.586 1.8,-1.055 3.22,-1.406 0.63,-0.098 5.57,-0.215 14.85,-0.391 l 0,-7.656 c -12,0.664 -22.54,0.996 -31.65,0.996 -8.65,0 -20.03,-0.332 -34.16,-0.996"
             inkscape:connector-curvature="0" /><path
             id="path34"
             style="fill:#B31B1B;fill-opacity:1;fill-rule:nonzero;stroke:none"
             d="m 2136.1,448.914 0,7.656 12.66,0.137 c 1.97,0.078 3.47,0.41 4.51,0.996 1.01,0.586 1.81,1.309 2.36,2.207 0.98,1.778 1.56,4.942 1.74,9.492 0.08,1.153 0.27,13.946 0.66,38.36 l 0,55.472 c 0,14.879 -0.21,30.25 -0.66,46.11 -0.37,10.695 -0.86,16.668 -1.49,17.91 -0.45,0.894 -1.17,1.516 -2.14,1.887 -1.37,0.621 -7.58,0.929 -18.64,0.929 l 0,7.645 c 19.94,2.527 33.79,5.691 41.57,9.484 1.15,0.539 2.03,0.817 2.65,0.817 0.61,0 1.1,-0.2 1.45,-0.598 0.35,-0.402 0.54,-0.957 0.54,-1.672 0,-0.625 -0.09,-1.512 -0.25,-2.676 l -0.12,-4.41 c -0.41,-15.937 -0.64,-29.523 -0.72,-40.742 l -0.25,-20.848 0,-69.328 c 0.37,-23.164 0.6,-35.683 0.66,-37.558 0.1,-4.454 0.63,-7.696 1.6,-9.746 0.37,-0.801 0.9,-1.485 1.62,-2.071 0.71,-0.586 1.78,-1.055 3.21,-1.406 0.62,-0.098 5.58,-0.215 14.86,-0.391 l 0,-7.656 c -12.01,0.664 -22.58,0.996 -31.66,0.996 -8.65,0 -20.04,-0.332 -34.16,-0.996"
             inkscape:connector-curvature="0" /><path
             id="path36"
             style="fill:#B31B1B;fill-opacity:1;fill-rule:nonzero;stroke:none"
             d="m 2260.67,630.07 0,8.637 c 14.57,-0.656 28.1,-0.992 40.6,-0.992 12.7,0 25.32,0.336 37.84,0.992 l 0,-8.637 c -10.47,-0.172 -16.86,-0.64 -19.16,-1.398 -2.31,-0.758 -3.85,-1.809 -4.65,-3.129 -1.15,-1.785 -1.86,-6.098 -2.13,-12.93 -0.1,-1.785 -0.33,-14.39 -0.67,-37.847 l 0,-49.309 c 0,-19.102 1.24,-31.699 3.68,-37.793 2.44,-6.074 6.32,-11.133 11.66,-15.117 4.08,-3.027 9.59,-5.449 16.52,-7.266 6.91,-1.836 14.67,-2.734 23.18,-2.734 9.96,0 18.79,1.211 26.53,3.672 7.73,2.441 13.51,5.41 17.38,8.926 3.87,3.515 6.76,7.441 8.67,11.796 1.9,4.336 3.28,10.332 4.14,17.93 0.82,7.578 1.27,17.199 1.27,28.84 l 0,41.055 c 0,12.086 -0.23,23.89 -0.68,35.437 -0.18,8.445 -0.78,13.445 -1.8,15.008 -1.01,1.547 -2.67,2.703 -4.98,3.461 -2.3,0.758 -8.69,1.226 -19.14,1.398 l 0,8.637 c 14.63,-0.656 25.29,-0.992 32.03,-0.992 6.12,0 17.17,0.336 33.11,0.992 l 0,-8.637 c -10.55,-0.172 -16.96,-0.64 -19.2,-1.398 -2.27,-0.758 -3.85,-1.809 -4.73,-3.141 -1.05,-1.773 -1.74,-6.086 -1.99,-12.933 0,-1.782 -0.14,-14.403 -0.39,-37.868 l 0,-44.664 c 0,-21.953 -1.54,-37.285 -4.61,-45.996 -3.09,-8.73 -8.71,-16.406 -16.89,-23.066 -6.16,-4.981 -14.07,-8.848 -23.72,-11.602 -9.64,-2.754 -20.37,-4.14 -32.11,-4.14 -13.71,0 -25.6,1.621 -35.66,4.863 -10.06,3.242 -17.71,7.52 -22.97,12.813 -5.25,5.273 -8.85,10.664 -10.82,16.191 -2.48,7.285 -3.73,19.512 -3.73,36.672 l 0,58.929 c 0,12.094 -0.23,23.911 -0.66,35.473 -0.28,8.445 -0.92,13.445 -1.92,15.008 -1.01,1.547 -2.65,2.703 -4.9,3.461 -2.25,0.758 -8.63,1.226 -19.1,1.398"
             inkscape:connector-curvature="0" /><path
             id="path38"
             style="fill:#B31B1B;fill-opacity:1;fill-rule:nonzero;stroke:none"
             d="m 2462.6,448.914 0,7.656 12.72,0.137 c 1.85,0.078 3.3,0.41 4.35,0.996 1.02,0.586 1.8,1.309 2.33,2.207 0.97,1.778 1.6,4.961 1.87,9.492 0,1.172 0.22,13.985 0.67,38.418 l 0,15.918 c 0,7.149 -0.22,14.817 -0.67,23.028 -0.27,5.254 -0.68,8.379 -1.25,9.355 -0.56,0.988 -1.56,1.731 -2.95,2.219 -1.4,0.488 -7.09,0.687 -17.07,0.601 l 0,7.649 c 17.8,2.461 30.8,5.68 38.99,9.644 1.75,0.879 2.95,1.313 3.57,1.313 0.61,0 1.1,-0.223 1.47,-0.668 0.33,-0.445 0.5,-1.113 0.5,-2.016 0,-0.621 -0.02,-1.336 -0.07,-2.148 -0.2,-3.219 -0.39,-10.024 -0.57,-20.403 l 24.86,21.227 c 7.29,2.672 14.2,4.008 20.71,4.008 7.22,0 14.06,-1.469 20.52,-4.406 6.45,-2.93 11.31,-6.629 14.55,-11.086 3.25,-4.438 5.43,-10.055 6.49,-16.813 0.62,-4.012 0.94,-15.183 0.94,-33.535 l 0,-23.633 c 0,-11.562 0.21,-19.433 0.66,-23.633 0.45,-2.675 1.15,-4.511 2.11,-5.527 0.94,-1.035 2.4,-1.68 4.37,-1.953 l 14.48,-0.391 0,-7.656 c -8.68,0.664 -15.86,0.996 -21.6,0.996 -4.95,0 -13.13,-0.332 -24.61,-0.996 0.87,22.031 1.32,35.938 1.32,41.738 l 0,22.481 c 0,13.984 -0.52,23.164 -1.6,27.539 -1.52,5.969 -4.94,10.793 -10.27,14.445 -5.33,3.653 -11.78,5.477 -19.34,5.477 -6.66,0 -12.75,-1.602 -18.28,-4.793 -5.51,-3.223 -9.43,-6.887 -11.8,-11.028 -2.34,-4.128 -3.51,-11.113 -3.51,-20.898 l 0,-16.152 c 0.43,-23.164 0.64,-35.664 0.64,-37.539 0.18,-4.454 0.73,-7.696 1.63,-9.746 0.35,-0.801 0.89,-1.504 1.6,-2.071 0.72,-0.586 1.83,-1.055 3.36,-1.406 0.54,-0.098 5.46,-0.215 14.76,-0.391 l 0,-7.656 c -10.82,0.664 -20.62,0.996 -29.41,0.996 -7.46,0 -19.61,-0.332 -36.47,-0.996"
             inkscape:connector-curvature="0" /><path
             id="path40"
             style="fill:#B31B1B;fill-opacity:1;fill-rule:nonzero;stroke:none"
             d="m 2658.95,637.047 c 4.16,0 7.68,-1.461 10.57,-4.387 2.87,-2.93 4.31,-6.472 4.31,-10.64 0,-4.075 -1.46,-7.575 -4.37,-10.5 -2.93,-2.93 -6.45,-4.391 -10.51,-4.391 -4.16,0 -7.71,1.461 -10.64,4.391 -2.93,2.925 -4.38,6.425 -4.38,10.5 0,4.168 1.45,7.71 4.38,10.64 2.93,2.926 6.48,4.387 10.64,4.387 z m -32.3,-78.445 0,7.652 c 17.03,1.973 31.36,5.738 42.96,11.293 l 2.89,-2.129 c -0.44,-18.945 -0.66,-33.445 -0.66,-43.496 l 0,-24.258 c 0.43,-23.125 0.7,-35.625 0.8,-37.5 0.08,-4.434 0.57,-7.676 1.47,-9.726 0.43,-0.801 1.01,-1.504 1.72,-2.071 0.7,-0.586 1.77,-1.055 3.18,-1.406 0.55,-0.098 5.47,-0.215 14.76,-0.391 l 0,-7.656 c -13.45,0.664 -24.23,0.996 -32.3,0.996 -7.09,0 -18.71,-0.332 -34.82,-0.996 l 0,7.656 12.69,0.137 c 1.88,0.078 3.32,0.41 4.36,0.996 1.03,0.567 1.81,1.309 2.34,2.188 0.98,1.777 1.6,4.921 1.88,9.472 0,1.133 0.21,13.887 0.66,38.223 l 0,23.437 c 0,13.235 -0.45,21.106 -1.33,23.586 -0.55,1.336 -1.48,2.332 -2.87,2.996 -1.37,0.665 -7.28,0.997 -17.73,0.997"
             inkscape:connector-curvature="0" /><path
             id="path42"
             style="fill:#B31B1B;fill-opacity:1;fill-rule:nonzero;stroke:none"
             d="m 2754.77,447.586 c -3.5,9.121 -5.9,15.234 -7.23,18.379 l -10.95,25.605 -27.41,63.946 c -1.77,4.023 -3.28,6.707 -4.53,8.054 -1.25,1.336 -2.63,2.18 -4.14,2.539 -1.25,0.356 -4.55,0.625 -9.9,0.805 l 0,7.652 c 14.79,-0.671 25.55,-1.007 32.34,-1.007 7.47,0 17.7,0.336 30.71,1.007 l 0,-7.652 c -9.61,-0.269 -15.26,-0.894 -16.96,-1.871 -1.7,-0.996 -2.54,-2.328 -2.54,-4.031 0,-2.684 1.78,-8.453 5.36,-17.313 l 16.32,-40.781 3.89,-9.121 c 4.38,-10.625 7.37,-17.735 8.99,-21.309 l 13.36,30.43 c 0.8,1.797 4.86,11.848 12.16,30.176 4.28,10.656 7.13,18.801 8.56,24.433 0.35,1.512 0.53,2.86 0.53,4.016 0,1.527 -0.59,2.598 -1.74,3.23 -2.13,1.161 -7.83,1.872 -17.09,2.141 l 0,7.652 c 13.26,-0.671 21.77,-1.007 25.5,-1.007 3.13,0 11.65,0.336 25.53,1.007 l 0,-7.652 c -5.53,-0.269 -9.2,-0.914 -11.03,-1.937 -1.82,-1.028 -3.64,-3.157 -5.39,-6.375 -1.25,-2.149 -6.08,-11.805 -14.44,-28.965 l -12.83,-27.481 c -2.23,-4.922 -9.94,-23.105 -23.12,-54.57 l -13.95,0"
             inkscape:connector-curvature="0" /><path
             id="path44"
             style="fill:#B31B1B;fill-opacity:1;fill-rule:nonzero;stroke:none"
             d="m 2859.81,524.383 c 2.5,-0.235 7.21,-0.469 14.18,-0.672 13.28,-0.449 22.42,-0.676 27.42,-0.676 11.86,0 19.65,0.227 23.4,0.676 0.1,2.117 0.14,3.75 0.14,4.91 0,13.977 -2.85,24.25 -8.56,30.797 -5.72,6.547 -13.34,9.82 -22.89,9.82 -10.08,0 -18.18,-3.593 -24.34,-10.781 -6.15,-7.187 -9.27,-18.555 -9.35,-34.074 z m 85.74,-54.453 -4.26,-9.629 c -6.13,-3.848 -10.62,-6.406 -13.45,-7.656 -4.18,-1.875 -8.97,-3.477 -14.34,-4.766 -5.37,-1.309 -11.03,-1.953 -16.99,-1.953 -11.72,0 -22.35,2.441 -31.86,7.344 -9.51,4.882 -16.89,12.207 -22.16,21.933 -5.3,9.727 -7.93,21.133 -7.93,34.199 0,10.215 1.38,19.453 4.2,27.676 2.79,8.234 5.97,14.289 9.53,18.195 2.57,2.852 6.58,6.114 12.01,9.797 5.41,3.688 10.8,6.61 16.13,8.746 7.03,2.93 14.63,4.403 22.81,4.403 9.98,0 18.97,-2.274 27.03,-6.809 8.05,-4.543 13.93,-10.722 17.68,-18.539 3.73,-7.844 5.59,-16.691 5.59,-26.555 0,-2.5 -0.22,-5.527 -0.65,-9.082 -6.42,-1.25 -12.19,-2.07 -17.26,-2.422 -9.63,-0.722 -19.26,-1.074 -28.89,-1.074 l -42.93,0 c 0.18,-12.715 2.38,-23.008 6.62,-30.859 4.24,-7.871 10.08,-13.652 17.52,-17.383 7.46,-3.73 15.18,-5.605 23.22,-5.605 5.43,0 10.84,0.879 16.25,2.617 5.39,1.777 12.05,5 20,9.687 l 2.13,-2.265"
             inkscape:connector-curvature="0" /><path
             id="path46"
             style="fill:#B31B1B;fill-opacity:1;fill-rule:nonzero;stroke:none"
             d="m 2962.25,448.914 0,7.656 c 10.12,0.176 15.59,0.352 16.41,0.528 1.52,0.254 2.67,0.683 3.44,1.269 0.74,0.586 1.36,1.406 1.81,2.481 0.88,2.05 1.43,5.273 1.6,9.629 0.45,23.828 0.69,36.269 0.69,37.343 l 0,15.918 c 0,7.149 -0.24,14.817 -0.69,23.028 -0.17,5.254 -0.54,8.379 -1.11,9.355 -0.57,0.988 -1.58,1.731 -3.03,2.219 -1.44,0.488 -7.15,0.687 -17.13,0.601 l 0,7.649 c 17.8,2.461 30.78,5.68 38.99,9.644 1.76,0.879 2.95,1.313 3.57,1.313 0.61,0 1.12,-0.223 1.45,-0.668 0.35,-0.445 0.54,-1.113 0.54,-2.016 0,-0.621 -0.03,-1.336 -0.11,-2.14 -0.32,-5.453 -0.49,-13.911 -0.57,-25.34 4.02,4.617 7.73,9.207 11.11,13.75 3.4,4.531 5.86,7.469 7.41,8.808 2.65,2.321 5.74,4.157 9.23,5.536 3.48,1.382 7.09,2.07 10.84,2.07 3.75,0 7.46,-0.801 11.14,-2.406 l 0.8,-1.86 c -1.37,-11.851 -2.13,-22.258 -2.33,-31.261 l -6.01,0 c -2.05,4.269 -4.44,7.382 -7.17,9.335 -2.71,1.946 -6.13,2.93 -10.23,2.93 -6.88,0 -12.74,-2.832 -17.56,-8.476 -4.81,-5.653 -7.23,-14.121 -7.23,-25.43 l 0,-13.75 c 0,-5.879 0.23,-16.602 0.68,-32.168 0.08,-5.527 0.32,-9.043 0.67,-10.547 0.35,-1.523 0.82,-2.617 1.4,-3.281 0.57,-0.664 1.53,-1.231 2.88,-1.66 2.65,-0.821 9.88,-1.621 21.64,-2.403 l 0,-7.656 c -15.67,0.664 -29.01,0.996 -40.04,0.996 -11.39,0 -22.42,-0.332 -33.09,-0.996"
             inkscape:connector-curvature="0" /><path
             id="path48"
             style="fill:#B31B1B;fill-opacity:1;fill-rule:nonzero;stroke:none"
             d="m 3074.99,489.129 7.63,0 c 0.08,-5.156 0.37,-9.258 0.8,-12.285 0.45,-3.008 1.21,-5.977 2.29,-8.867 1.07,-2.891 2.73,-5.332 4.98,-7.325 2.23,-2.011 4.67,-3.554 7.3,-4.668 2.64,-1.113 5.34,-1.855 8.07,-2.207 2.71,-0.351 6.86,-0.547 12.42,-0.547 9.14,0 16.62,2.422 22.48,7.208 5.86,4.804 8.81,11.386 8.81,19.746 0,3.73 -0.92,7.031 -2.73,9.863 -1.84,2.851 -4.48,5.078 -7.89,6.68 -3.42,1.601 -10.81,3.691 -22.11,6.269 -11.29,2.559 -18.6,4.434 -21.9,5.606 -4.98,1.855 -8.94,4.121 -11.87,6.789 -2.95,2.664 -5.28,6.043 -7.01,10.144 -1.74,4.082 -2.6,8.535 -2.6,13.332 0,7.031 1.83,13.504 5.52,19.414 3.7,5.903 9.52,10.703 17.45,14.399 7.93,3.687 16.56,5.539 25.91,5.539 5.61,0 12.09,-0.758 19.5,-2.297 7.38,-1.524 13.39,-3.418 18.02,-5.68 -0.62,-9.902 -1.05,-19.98 -1.32,-30.242 l -7.64,0 c -0.45,6.453 -0.96,10.703 -1.54,12.734 -0.59,2.032 -1.37,3.848 -2.33,5.438 -0.99,1.578 -2.69,3.281 -5.08,5.109 -2.4,1.805 -5.49,3.418 -9.27,4.832 -3.79,1.418 -8.42,2.129 -13.95,2.129 -7.81,0 -14.12,-2.316 -18.87,-6.926 -4.76,-4.625 -7.13,-10.046 -7.13,-16.257 0,-3.465 0.69,-6.446 2.06,-8.926 1.38,-2.5 3.24,-4.512 5.54,-6.055 2.33,-1.562 5.57,-2.969 9.75,-4.199 l 22.17,-5.469 c 11.21,-2.851 18.94,-5.281 23.16,-7.332 4.24,-2.043 7.64,-5.207 10.22,-9.523 2.57,-4.317 3.88,-9.493 3.88,-15.528 0,-11.992 -4.98,-22.441 -14.92,-31.367 -9.94,-8.926 -23.26,-13.398 -39.92,-13.398 -7.68,0 -17.89,1.152 -30.65,3.457 -7.05,1.328 -10.84,2.265 -11.36,2.793 -0.37,0.273 -0.55,0.722 -0.55,1.328 0,0.625 0.1,1.387 0.29,2.285 0.84,3.809 1.39,7.539 1.68,11.191 0.28,3.653 0.51,11.25 0.71,22.813"
             inkscape:connector-curvature="0" /><path
             id="path50"
             style="fill:#B31B1B;fill-opacity:1;fill-rule:nonzero;stroke:none"
             d="m 3216.98,637.047 c 4.16,0 7.69,-1.461 10.56,-4.387 2.89,-2.93 4.32,-6.472 4.32,-10.64 0,-4.075 -1.46,-7.575 -4.37,-10.5 -2.93,-2.93 -6.45,-4.391 -10.51,-4.391 -4.16,0 -7.72,1.461 -10.65,4.391 -2.91,2.925 -4.39,6.425 -4.39,10.5 0,4.168 1.48,7.71 4.39,10.64 2.93,2.926 6.49,4.387 10.65,4.387 z m -32.31,-78.445 0,7.652 c 17.05,1.973 31.37,5.738 42.97,11.293 l 2.89,-2.129 c -0.43,-18.945 -0.66,-33.445 -0.66,-43.496 l 0,-24.258 c 0.45,-23.125 0.72,-35.625 0.8,-37.5 0.08,-4.434 0.57,-7.676 1.46,-9.726 0.45,-0.801 1.02,-1.504 1.72,-2.071 0.73,-0.586 1.78,-1.055 3.21,-1.406 0.52,-0.098 5.44,-0.215 14.76,-0.391 l 0,-7.656 c -13.49,0.664 -24.26,0.996 -32.32,0.996 -7.09,0 -18.69,-0.332 -34.83,-0.996 l 0,7.656 12.72,0.137 c 1.85,0.078 3.32,0.41 4.33,0.996 1.04,0.567 1.8,1.309 2.35,2.188 0.97,1.777 1.6,4.921 1.87,9.472 0,1.133 0.22,13.887 0.67,38.223 l 0,23.437 c 0,13.235 -0.45,21.106 -1.33,23.586 -0.53,1.336 -1.49,2.332 -2.87,2.996 -1.37,0.665 -7.29,0.997 -17.74,0.997"
             inkscape:connector-curvature="0" /><path
             id="path52"
             style="fill:#B31B1B;fill-opacity:1;fill-rule:nonzero;stroke:none"
             d="m 3257.8,553.289 0,5.602 c 8.49,3.488 15.27,6.605 20.29,9.355 0,21.176 0,34.707 0,40.574 9.3,3.2 16.88,6.629 22.7,10.285 l 3.22,-2.675 c -1.02,-7.442 -2.13,-23.832 -3.32,-49.184 7.05,-0.09 11.27,-0.133 12.69,-0.133 0.78,0 5.34,0.114 13.62,0.332 4.59,0.137 8.02,0.403 10.31,0.801 l 0.94,-0.934 -2.78,-12.363 c -5.56,0.09 -10.68,0.137 -15.35,0.137 -4.67,0 -11.15,-0.047 -19.43,-0.137 l -0.67,-54.511 c -0.27,-13.301 -0.19,-21.25 0.26,-23.829 0.43,-2.578 1.27,-4.843 2.52,-6.757 1.23,-1.934 2.83,-3.477 4.8,-4.629 1.98,-1.172 5.35,-2.051 10.12,-2.676 3.59,0 6.52,0.156 8.77,0.469 2.25,0.312 5.08,1.093 8.51,2.343 l 1.59,-5.078 c -4.16,-3.301 -8.19,-6.719 -12.07,-10.293 -3.36,-1.23 -6.49,-2.07 -9.42,-2.461 -2.91,-0.41 -6.27,-0.605 -10.06,-0.605 -4.68,0 -8.41,0.527 -11.21,1.601 -2.77,1.075 -5.31,2.559 -7.61,4.473 -2.29,1.934 -4.22,4.356 -5.77,7.285 -1.56,2.949 -2.57,7.598 -3.02,13.926 0.07,6.055 0.25,12.695 0.52,19.902 0.08,1.426 0.14,3.008 0.14,4.688 l 0,55.488 -5.45,0 c -4.41,0 -9.35,-0.32 -14.84,-0.996"
             inkscape:connector-curvature="0" /><path
             id="path54"
             style="fill:#B31B1B;fill-opacity:1;fill-rule:nonzero;stroke:none"
             d="m 3352,377.801 6.81,20.586 3.21,0 c 1.7,-1.407 3.14,-2.539 4.35,-3.379 1.19,-0.84 2.48,-1.485 3.87,-1.934 1.39,-0.429 3.42,-0.664 6.07,-0.664 2.76,0 5.45,0.586 8.09,1.778 2.62,1.171 5.06,3.046 7.34,5.585 2.27,2.539 4.96,6.895 8.09,13.106 4.69,9.59 8.91,19.355 12.64,29.316 -2.86,8.028 -6.25,17.032 -10.24,27.012 l -21.17,52.695 c -6.29,15.684 -11.45,27.637 -15.45,35.84 -1.6,3.235 -3.32,5.391 -5.16,6.485 -1.81,1.089 -5.89,1.984 -12.22,2.687 l 0,7.652 c 11.03,-0.671 21.91,-1.007 32.67,-1.007 10.49,0 20.59,0.336 30.28,1.007 l 0,-7.652 c -9.18,-0.602 -14.44,-1.172 -15.76,-1.695 -2.33,-0.86 -3.48,-2.426 -3.48,-4.676 0,-1.395 0.76,-4.254 2.26,-8.59 3.48,-10.957 6.76,-20.305 9.87,-28.058 l 8.4,-20.84 c 5.07,-12.461 9.33,-22.578 12.81,-30.313 l 7.09,15.762 c 2.77,6.23 7.63,18.066 14.59,35.527 6.97,17.453 11.03,28.235 12.19,32.383 0.37,1.438 0.54,2.691 0.54,3.77 0,1.707 -0.7,3.019 -2.07,3.964 -1.38,0.95 -6.76,1.872 -16.09,2.766 l 0,7.652 c 10.31,-0.671 19.43,-1.007 27.36,-1.007 8.01,0 15.94,0.336 23.77,1.007 l -1.33,-7.652 c -4.55,-0.18 -8.06,-1.172 -10.54,-2.953 -2.5,-1.793 -6.27,-7.809 -11.29,-18.055 -5.04,-10.254 -14.38,-30.359 -28.01,-60.332 l -30.88,-72.285 c -4.98,-11.543 -9.28,-19.785 -12.93,-24.727 -3.65,-4.941 -8.01,-8.691 -13.08,-11.25 -5.08,-2.558 -10.65,-3.847 -16.7,-3.847 -2.93,0 -5.59,0.332 -7.95,0.976 -2.37,0.664 -5.02,1.778 -7.95,3.36"
             inkscape:connector-curvature="0" /><path
             id="path56"
             style="fill:#B31B1B;fill-opacity:1;fill-rule:nonzero;stroke:none"
             d="m 140.199,542.91 c 0,222.051 180.633,402.703 402.656,402.703 222.047,0 402.692,-180.644 402.692,-402.683 0,-222.051 -180.645,-402.707 -402.692,-402.707 -222.023,0 -402.656,180.644 -402.656,402.687 z m -5.32,0 c 0,-224.972 183.016,-408 407.976,-408 224.981,0 408.016,183.028 408.016,408.02 0,224.972 -183.035,408.008 -408.016,408.008 -224.96,0 -407.976,-183.043 -407.976,-408.028"
             inkscape:connector-curvature="0" /><path
             id="path58"
             style="fill:#B31B1B;fill-opacity:1;fill-rule:nonzero;stroke:none"
             d="m 5.32422,542.91 c 0,296.426 241.13678,537.59 537.53078,537.59 296.418,0 537.575,-241.164 537.575,-537.59 C 1080.43,246.492 839.273,5.33984 542.855,5.33984 246.461,5.33984 5.32422,246.492 5.32422,542.91 Z M 0,542.91 C 0,243.555 243.527,0 542.855,0 c 299.352,0 542.895,243.555 542.895,542.91 0,299.36 -243.543,542.91 -542.895,542.91 C 243.527,1085.82 0,842.27 0,542.91"
             inkscape:connector-curvature="0" /><path
             id="path60"
             style="fill:#B31B1B;fill-opacity:1;fill-rule:nonzero;stroke:none"
             d="m 26.5977,542.91 c 0,284.672 231.5903,516.27 516.2573,516.27 284.688,0 516.305,-231.598 516.305,-516.27 C 1059.16,258.23 827.543,26.6289 542.855,26.6289 258.188,26.6289 26.5977,258.23 26.5977,542.91 Z m -12.7735,0 c 0,-291.719 237.3238,-529.0584 529.0308,-529.0584 291.731,0 529.075,237.3394 529.075,529.0584 0,291.715 -237.344,529.04 -529.075,529.04 -291.707,0 -529.0308,-237.325 -529.0308,-529.04"
             inkscape:connector-curvature="0" /><path
             id="path62"
             style="fill:#B31B1B;fill-opacity:1;fill-rule:nonzero;stroke:none"
             d="m 597.852,379.812 c 0.023,-0.007 27.796,-2.207 27.796,-2.207 0.008,0 20.547,-0.585 20.547,-0.585 l -0.082,8.476 -24.375,0.832 -37.093,3.438 c -11.293,1.445 -21.801,0.261 -22.247,0.203 l -1.41,-0.157 0,-8.398 1.785,0.215 c 0.094,0.012 9.395,1.047 35.079,-1.817 z m 0,-15.789 c 0.023,-0.011 27.796,-2.207 27.796,-2.207 0.008,0 20.547,-0.586 20.547,-0.586 l -0.082,8.465 -24.379,0.821 -37.109,3.418 c -11.273,1.457 -21.781,0.293 -22.223,0.246 l -1.414,-0.157 0,-8.429 1.785,0.215 c 0.094,0.011 9.395,1.054 35.079,-1.786 z m 0,87.207 c 0.019,-0.011 27.804,-2.226 27.804,-2.226 l 20.535,-0.578 -0.078,8.488 -24.379,0.781 -37.105,3.438 c -11.277,1.484 -21.785,0.301 -22.231,0.242 l -1.41,-0.156 0,-8.407 1.785,0.215 c 0.094,0.008 9.395,1.043 35.079,-1.797 z m 0,15.821 c 0.019,-0.012 27.796,-2.246 27.796,-2.246 0.012,0 20.543,-0.578 20.543,-0.578 l -0.078,8.496 -24.355,0.832 c -0.016,0 -37.113,3.398 -37.113,3.398 -11.293,1.465 -21.809,0.281 -22.247,0.223 l -1.41,-0.156 0,-8.446 1.789,0.223 c 0.094,0.012 9.391,1.074 35.075,-1.746 z m 0,-59.278 c 0.019,-0.011 27.796,-2.218 27.796,-2.218 0.008,0 20.543,-0.633 20.543,-0.633 l -0.078,8.504 -24.363,0.851 c -0.012,0 -37.117,3.399 -37.117,3.399 -11.278,1.472 -21.785,0.32 -22.231,0.262 l -1.414,-0.157 0,-8.457 1.789,0.215 c 0.09,0.012 9.391,1.066 35.075,-1.766 z M 542.855,162.82 c -209.578,0 -380.085,170.508 -380.085,380.11 0,209.593 170.507,380.117 380.085,380.117 209.598,0 380.11,-170.524 380.11,-380.117 0,-209.602 -170.512,-380.11 -380.11,-380.11 z m 0,773 c -216.625,0 -392.859,-176.254 -392.859,-392.89 0,-216.641 176.234,-392.883 392.859,-392.883 216.637,0 392.883,176.242 392.883,392.883 0,216.636 -176.246,392.89 -392.883,392.89 z m 0.079,-759.004 c -24.192,11.024 -246.336,117.118 -246.336,293.641 0,0 0.015,325.012 0.015,337.313 12.289,0 479.828,0.011 492.117,0.011 0,-12.308 0.02,-343.574 0.02,-343.574 0,-168.914 -221.648,-276.211 -245.816,-287.391 z M 283.84,820.543 283.824,470.457 c 0,-194.16 254.051,-305.418 256.617,-306.523 l 2.543,-1.094 2.536,1.113 c 10.453,4.57 256.003,114.141 256.003,300.254 l -0.019,356.348 z m 403.672,-330.477 0,15.84 c 4.57,0 11.281,0 15.851,0 0,-4.57 0,-11.269 0,-15.84 -4.57,0 -11.281,0 -15.851,0 z m 0,-70.878 0,15.859 c 4.57,0 11.281,0 15.851,0 0,-4.57 0,-11.289 0,-15.859 -4.57,0 -11.281,0 -15.851,0 z m 0,-70.86 0,15.86 c 4.57,0 11.281,0 15.851,0 0,-4.571 0,-11.29 0,-15.86 -4.57,0 -11.281,0 -15.851,0 z m -140.227,-153.516 0,115.657 c 7.594,1.328 12.102,5.683 14.176,9.578 5.211,0 126.051,0 126.051,0 l 0,19.765 24.367,0 0,32.891 -24.367,0 0,37.969 24.367,0 0,32.89 -24.367,0 0,37.989 24.367,0 0,32.871 -24.367,0 0,19.367 -19.121,0 0,7.801 -14.934,0.07 -25.434,0.223 -27.968,2.324 -18.903,1.914 c -13.578,1.496 -25.644,-0.976 -26.136,-1.062 -3.266,-0.774 -5.715,-1.809 -7.696,-2.95 l 0,42.45 227.192,0 c 0.004,-63.829 0.011,-117.586 0.011,-117.586 0,-155.313 -194.031,-256.067 -227.238,-272.161 z m -4.332,123.575 c -9.242,0.011 -11.019,6.164 -11.191,6.867 l -0.793,3.242 -123.602,0.066 c 0,0 0,188.723 0,196.711 2.996,0 7.52,0 10.821,0 l -0.032,-188.964 32.785,-0.352 37.633,2.305 32.832,1.765 c 7.25,-0.019 10,-3.406 12.656,-6.687 2.122,-2.61 4.524,-5.578 8.754,-5.578 4.141,0 6.668,2.89 8.895,5.441 2.918,3.348 5.941,6.805 13.449,6.824 l 32.852,-1.765 37.605,-2.305 c 0.02,0 32.988,0.352 32.988,0.352 l -0.175,4.207 -0.035,184.757 10.601,0 0,-196.711 -123.476,0 -0.895,-3.152 c -0.207,-0.722 -2.266,-7.012 -11.672,-7.023 z m -144.219,45.801 c 0,-4.571 0,-11.29 0,-15.86 -4.57,0 -11.293,0 -15.863,0 0,4.57 0,11.289 0,15.86 4.57,0 11.293,0 15.863,0 z m 0,70.859 c 0,-4.57 0,-11.289 0,-15.859 -4.57,0 -11.293,0 -15.863,0 0,4.57 0,11.289 0,15.859 4.57,0 11.293,0 15.863,0 z m 0,70.859 c 0,-4.57 0,-11.269 0,-15.84 -4.57,0 -11.293,0 -15.863,0 0,4.571 0,11.27 0,15.84 4.57,0 11.293,0 15.863,0 z m 140.071,25.899 0,-190.907 c -3.145,3.516 -8.129,7.625 -17.379,7.645 l -33.617,-1.805 -37.055,-2.265 c 0,0 -16.34,0.164 -24.082,0.254 0,7.878 0.031,180.457 0.039,188.386 3.07,0.02 6.426,0.032 6.426,0.032 l 25.625,0.222 c 0.004,0 28.66,2.375 28.66,2.375 l 18.82,1.903 c 12.27,1.359 23.485,-0.907 23.586,-0.926 5.801,-1.367 8.09,-3.614 8.977,-4.914 z m -0.035,-337.11 c -32.778,15.578 -228.719,115.539 -228.719,278.125 0,0 0,50.715 0,111.739 l 228.754,0 0,-42.157 c -1.875,1.024 -4.192,1.934 -7.137,2.625 -0.621,0.137 -12.699,2.59 -26.281,1.086 l -18.871,-1.906 -27.946,-2.324 c -0.015,0 -25.429,-0.223 -25.429,-0.223 l -14.996,-0.07 0.05,-4.238 0,-3.563 -19.343,0 0,-19.367 -24.497,0 0,-32.871 24.497,0 0,-37.989 -24.497,0 0,-32.89 24.497,0 0,-37.969 -24.497,0 0,-32.891 24.497,0 0,-19.765 c 0,0 120.523,0 125.929,0 1.977,-3.934 6.383,-8.301 13.989,-9.598 z m 8.55,336.36 c 0.391,0.898 2.223,3.965 9.535,5.691 0.012,0 11.188,2.258 23.45,0.91 0.078,-0.011 18.84,-1.914 18.84,-1.914 l 28.687,-2.375 25.629,-0.222 c 0,0 3.351,-0.012 6.414,-0.032 0.004,-7.929 0.039,-180.508 0.039,-188.386 -5.926,-0.071 -24.109,-0.254 -24.109,-0.254 l -37.024,2.265 -33.64,1.805 c -9.336,-0.02 -14.422,-3.973 -17.821,-7.527 z M 310.051,792.602 c 5.226,0 459.211,0.015 464.441,0.015 0,-2.949 0.012,-105.918 0.016,-195.285 l -464.457,0 c 0,88.527 0,192.281 0,195.27 z m -5.324,5.324 0,-325.106 c 0,-180.008 234.8,-284.402 237.168,-285.437 l 1.078,-0.469 1.07,0.477 c 2.359,1.054 235.801,107.14 235.801,279.582 l -0.028,330.965 z M 597.852,423.594 c 0.019,-0.012 27.804,-2.227 27.804,-2.227 l 20.539,-0.597 -0.082,8.496 -24.359,0.82 c -0.016,0 -37.121,3.391 -37.121,3.391 -11.281,1.484 -21.785,0.312 -22.231,0.253 l -1.414,-0.156 0,-8.418 1.785,0.215 c 0.094,0.008 9.395,1.055 35.079,-1.777 z m 0.003,86.992 c 0.016,-0.012 27.801,-2.227 27.801,-2.227 l 20.539,-0.617 -0.082,8.488 -24.363,0.821 -37.109,3.445 c -11.289,1.438 -21.805,0.274 -22.239,0.215 l -1.414,-0.156 0,-8.426 1.785,0.215 c 0.094,0.008 9.391,1.043 35.082,-1.758 z m -0.003,-15.813 c 0.019,-0.007 27.804,-2.234 27.804,-2.234 l 20.539,-0.598 -0.082,8.477 -24.371,0.832 -37.097,3.418 c -11.293,1.445 -21.797,0.281 -22.243,0.223 l -1.414,-0.157 0,-8.425 1.789,0.214 c 0.09,0.008 9.391,1.063 35.075,-1.75 z m -96.551,-33.652 c 0.07,0.012 -19.465,-1.797 -19.465,-1.797 l -17.559,-1.629 c -0.035,0 -24.351,-0.781 -24.351,-0.781 l -0.059,-8.488 20.52,0.578 27.773,2.215 c 25.723,2.851 34.961,1.816 35.055,1.808 l 1.781,-0.215 0.004,8.407 -1.41,0.156 c -0.442,0.059 -10.891,1.242 -22.289,-0.254 z m 0,15.82 c 0.051,0.012 -10.246,-0.945 -10.246,-0.945 l -26.754,-2.441 c -0.008,0 -24.367,-0.832 -24.367,-0.832 l -0.067,-8.496 20.52,0.578 c 0.008,0 27.773,2.234 27.773,2.234 25.719,2.844 34.957,1.77 35.043,1.758 l 1.793,-0.223 0.004,8.446 -1.41,0.156 c -0.442,0.058 -10.891,1.242 -22.289,-0.235 z m 0.004,43.547 c 0.058,0.008 -13.039,-1.222 -13.039,-1.222 l -23.969,-2.215 -24.371,-0.821 -0.059,-8.488 20.535,0.617 27.758,2.215 c 25.723,2.813 34.961,1.778 35.055,1.77 l 1.781,-0.215 0.004,8.426 -1.414,0.156 c -0.441,0.059 -10.887,1.223 -22.281,-0.223 z m 0,-15.832 c 0.054,0.012 -10.957,-1.015 -10.957,-1.015 l -26.051,-2.391 -24.371,-0.832 -0.059,-8.477 20.528,0.598 27.765,2.227 c 25.719,2.82 34.961,1.765 35.047,1.757 l 1.789,-0.214 0.004,8.425 -1.414,0.157 c -0.441,0.058 -10.887,1.222 -22.281,-0.235 z m -0.004,-71.191 c 0.066,0.012 -14.059,-1.297 -14.059,-1.297 l -22.933,-2.082 c -0.016,0 -24.375,-0.82 -24.375,-0.82 l -0.067,-8.496 20.528,0.597 27.765,2.215 c 25.719,2.844 34.961,1.797 35.047,1.789 l 1.789,-0.215 0.004,8.418 -1.41,0.156 c -0.442,0.059 -10.891,1.231 -22.289,-0.265 z m 0,-59.539 c 0.078,0.008 -17.145,-1.582 -17.145,-1.582 l -19.859,-1.828 c -0.008,0 -24.371,-0.821 -24.371,-0.821 l -0.059,-8.465 20.524,0.586 c 0.004,0 27.765,2.196 27.765,2.196 25.727,2.851 34.965,1.808 35.051,1.797 l 1.789,-0.215 0.004,8.429 -1.414,0.157 c -0.441,0.047 -10.887,1.211 -22.285,-0.254 z m 0.004,15.828 c 0.054,0.012 -11.282,-1.055 -11.282,-1.055 l -25.726,-2.371 c -0.008,0 -24.371,-0.832 -24.371,-0.832 l -0.059,-8.476 20.524,0.585 c 0.004,0 27.765,2.2 27.765,2.2 25.727,2.871 34.965,1.836 35.059,1.824 l 1.781,-0.215 0.004,8.398 -1.41,0.157 c -0.442,0.058 -10.891,1.242 -22.285,-0.215 z m 0,27.754 c 0.047,0.012 -9.489,-0.887 -9.489,-0.887 l -27.523,-2.539 -24.367,-0.812 -0.059,-8.477 20.524,0.586 27.769,2.207 c 25.719,2.863 34.957,1.797 35.047,1.789 l 1.789,-0.227 0.004,8.418 -1.41,0.157 c -0.442,0.058 -10.891,1.242 -22.285,-0.215"
             inkscape:connector-curvature="0" /><path
             id="path64"
             style="fill:#B31B1B;fill-opacity:1;fill-rule:nonzero;stroke:none"
             d="m 347.426,125.203 c -3.047,-5.906 -7.629,-9.98 -13.254,-11.785 -5.379,-1.719 -11.422,-1.184 -16.578,1.484 0,0 -2.864,1.465 -5.032,2.586 2.063,3.996 18.899,36.602 20.958,40.598 2.179,-1.125 5.015,-2.59 5.015,-2.59 5.156,-2.656 9.098,-7.254 10.813,-12.625 0.656,-2.07 0.988,-4.199 0.988,-6.367 0,-3.731 -0.977,-7.551 -2.91,-11.301 z m -6.469,35 -9.711,5.012 -25.812,-50.012 9.738,-5.008 c 6.394,-3.293 13.906,-3.957 20.609,-1.808 6.992,2.238 12.641,7.207 16.344,14.394 3.715,7.199 4.496,14.699 2.262,21.699 -2.145,6.7 -7.039,12.422 -13.43,15.723 z m 20.277,-42.117 c -10.652,-20.6563 -27.523,-24.6798 -51.562,-12.305 0,0 -10.984,5.653 -15.703,8.086 2.176,4.207 29.531,57.254 31.707,61.465 3.554,-1.836 15.668,-8.086 15.668,-8.086 16.601,-8.566 24.844,-18.887 24.844,-31.262 0,-5.546 -1.657,-11.504 -4.954,-17.898 z m -17.468,53.867 -20.368,10.508 -36.558,-70.879 20.41,-10.508 c 26.828,-13.8084 46.562,-8.8982 58.684,14.59 12.117,23.504 4.656,42.441 -22.168,56.289 z m 296.429,-66.34 c 3.985,-6.3161 9.164,-14.531 11.496,-18.2302 -3.945,-0.9101 -9.918,-2.293 -13.867,-3.2031 0.481,4.3555 1.551,14.0117 2.371,21.4333 z m -4.148,9.59 -4.297,-37.8514 28.387,6.5468 -20.356,32.2736 z M 540.051,79.4492 c -1.863,-23.1992 -15.875,-33.4101 -42.848,-31.25 0,0 -12.301,0.9805 -17.582,1.4102 0.379,4.7304 5.164,64.2066 5.539,68.9336 3.992,-0.32 17.606,-1.414 17.606,-1.414 25.168,-2.024 37.468,-12.91 37.468,-33.2384 0,-1.4297 -0.062,-2.9218 -0.183,-4.4414 z m -36.867,42.9528 -22.868,1.825 -6.39,-79.4575 22.851,-1.8476 c 30.098,-2.4102 46.426,9.7383 48.547,36.0976 2.11,26.3595 -12.066,40.9605 -42.14,43.3825 z m 21.39,-41.7106 c -0.535,-6.6406 -3.195,-12.1797 -7.699,-16.0117 -4.297,-3.6485 -10.078,-5.4805 -15.859,-5.0078 0,0 -3.2,0.2578 -5.625,0.4492 0.363,4.4805 3.3,41.0589 3.656,45.5309 2.449,-0.183 5.633,-0.437 5.633,-0.437 10.215,-0.832 19.992,-8.672 19.992,-22.1838 0,-0.7617 -0.031,-1.5429 -0.098,-2.3398 z m -19.476,29.7966 c -0.008,0 -10.895,0.848 -10.895,0.848 l -4.504,-56.0548 10.891,-0.8828 c 7.168,-0.5781 14.351,1.7032 19.707,6.25 5.598,4.75 8.898,11.543 9.551,19.6133 1.464,18.2149 -11.66,29.1603 -24.75,30.2263 z m -58.989,15.985 c -0.636,-2.157 -1.187,-4.032 -1.816,-6.192 -4.191,1.223 -27.75,8.098 -27.75,8.098 l -6.641,-22.676 c 0,0 21.309,-6.2108 25.414,-7.4139 -0.625,-2.1563 -1.164,-4.0313 -1.796,-6.1914 -4.114,1.2031 -25.403,7.4218 -25.403,7.4218 l -7.324,-25.1289 c 0,0 23.723,-6.9414 27.918,-8.1718 -0.629,-2.1602 -1.172,-4.0196 -1.805,-6.1797 -4.195,1.2226 -32.949,9.6328 -37.144,10.8593 1.328,4.5508 18.066,61.8246 19.394,66.3676 4.188,-1.223 32.754,-9.563 36.953,-10.793 z m -62.91,-59.1644 47.301,-13.8281 4.773,16.3281 c 0,0 -23.738,6.9414 -27.929,8.1719 0.968,3.3086 3.398,11.6679 4.367,14.9765 4.113,-1.1992 25.414,-7.4258 25.414,-7.4258 l 4.746,16.3518 c 0,0 -21.289,6.211 -25.406,7.414 0.91,3.094 2.765,9.433 3.668,12.519 4.187,-1.222 27.742,-8.097 27.742,-8.097 l 4.797,16.347 -47.11,13.762 z M 56.9727,434.461 c 4.582,1.223 62.2573,16.477 66.8363,17.687 1.105,-4.171 8.089,-30.586 9.195,-34.757 -2.168,-0.575 -4.043,-1.075 -6.215,-1.649 -1.101,4.141 -6.75,25.477 -6.75,25.477 l -22.832,-6.035 c 0,0 5.332,-20.157 6.418,-24.246 -2.18,-0.579 -4.0625,-1.075 -6.2383,-1.653 -1.0781,4.094 -6.3945,24.25 -6.3945,24.25 0,0 -27.2461,-7.199 -31.5625,-8.34 -0.7188,2.703 -1.7383,6.563 -2.457,9.266 z m 36.6445,-31.641 16.4728,4.348 c 0,0 -5.332,20.164 -6.418,24.246 3.109,0.832 9.496,2.52 12.609,3.34 1.098,-4.141 6.746,-25.477 6.746,-25.477 l 16.442,4.364 -11.899,44.972 -77.0622,-20.39 5.1602,-19.493 c 0,0 27.2422,7.196 31.5625,8.34 1.0742,-4.093 6.3867,-24.25 6.3867,-24.25 z m 53.6918,-58.203 c -1.957,-5.594 -7.27,-10.828 -14.575,-14.344 -7.632,-3.691 -15.179,-4.699 -20.718,-2.765 -3.965,1.379 -7.024,4.258 -9.094,8.554 l -0.008,0 c -2.07,4.29 -2.426,8.477 -1.043,12.442 1.93,5.539 7.418,10.832 15.063,14.523 7.308,3.524 14.718,4.434 20.316,2.469 4.016,-1.394 7.082,-4.238 9.109,-8.457 2.036,-4.219 2.356,-8.398 0.95,-12.422 z m 3.816,14.727 c -2.664,5.519 -6.746,9.269 -12.125,11.152 -6.918,2.414 -15.801,1.426 -24.367,-2.703 -9.031,-4.367 -15.3361,-10.598 -17.758,-17.551 -0.75,-2.168 -1.1328,-4.375 -1.1328,-6.601 0,-3.25 0.8047,-6.551 2.414,-9.883 2.7028,-5.594 6.7818,-9.383 12.1168,-11.25 6.954,-2.422 15.743,-1.356 24.762,3 8.555,4.121 14.848,10.457 17.266,17.363 1.883,5.399 1.488,10.938 -1.176,16.473 z m 36.094,-126.719 c -6.524,-5.137 -12.781,-7.383 -18.59,-6.687 -6.301,0.75 -12.539,5.007 -18.543,12.644 -5.356,6.789 -8.051,13.125 -8.051,18.887 0,0.703 0.039,1.406 0.125,2.101 0.692,5.821 4.36,11.375 10.891,16.512 0,0 27.594,21.711 35.293,27.773 1.734,-2.207 4.195,-5.339 5.926,-7.539 -3.661,-2.878 -31.692,-24.929 -31.692,-24.929 -7.039,-5.539 -10.785,-10.91 -11.445,-16.438 -0.067,-0.574 -0.102,-1.14 -0.102,-1.719 0,-3.621 1.375,-7.207 4.106,-10.664 7.402,-9.402 17.422,-9.246 29.769,0.442 0,0 24.508,19.277 31.688,24.922 1.726,-2.207 4.191,-5.352 5.922,-7.551 -3.707,-2.918 -35.297,-27.754 -35.297,-27.754 z m 30.261,42.727 -35.839,-28.184 c -12.817,-10.059 -18.676,-5.996 -22.352,-1.328 -2.285,2.898 -3.238,5.683 -2.902,8.484 0.48,4.004 3.664,8.34 9.465,12.903 l 35.839,28.191 -12.457,15.859 -39.453,-31.035 c -7.676,-6.035 -12.008,-12.781 -12.871,-20.039 -0.922,-7.754 2.11,-16.121 9.02,-24.891 6.902,-8.781 14.328,-13.703 22.07,-14.628 7.254,-0.872 14.816,1.746 22.488,7.781 l 39.45,31.015 z m -106.726,37.937 c -7.774,2.707 -14.1368,8.82 -18.3985,17.676 -9.1797,18.996 -2.5196,36.203 17.8245,46.035 10.191,4.922 19.961,5.996 28.254,3.105 7.828,-2.722 14.046,-8.769 18.484,-17.968 2.656,-5.496 3.996,-10.957 3.996,-16.172 0,-3.242 -0.523,-6.395 -1.566,-9.395 -2.942,-8.406 -9.813,-15.418 -19.879,-20.273 -10.254,-4.949 -20.188,-5.996 -28.715,-3.008 z m 53.582,21.543 c 3.199,9.152 2.281,19.387 -2.652,29.609 -5.004,10.352 -12.442,17.5 -21.508,20.664 -9.645,3.36 -20.817,2.207 -32.301,-3.339 -22.9727,-11.102 -30.7461,-31.454 -20.2852,-53.106 4.8868,-10.137 12.293,-17.176 21.4182,-20.371 9.883,-3.445 21.207,-2.324 32.754,3.242 11.359,5.481 19.168,13.535 22.574,23.301 z m 83.238,-190.32 c -2.656,2.207 -8.945,7.441 -10.683,8.875 0.671,3 13.691,61.027 13.691,61.027 l -3.437,2.734 c 0,0 -32.473,-39.074 -35.54,-42.765 -2.078,1.73 -4.804,3.984 -6.886,5.715 3.027,3.652 41.156,49.55 44.183,53.203 2.672,-2.219 9.032,-7.512 10.77,-8.957 -0.676,-2.996 -13.777,-60.867 -13.777,-60.867 l 3.398,-2.93 c 0,0 32.519,39.187 35.582,42.871 2.078,-1.73 4.805,-3.984 6.887,-5.715 -3.032,-3.641 -41.16,-49.551 -44.188,-53.191 z m 36.606,66.347 c 0,0 -21.578,-25.976 -30.469,-36.679 3.234,14.226 11.84,52.156 11.84,52.156 l -17.332,14.406 -50.953,-61.328 15.035,-12.473 c 0,0 21.621,26.036 30.492,36.711 -3.203,-14.199 -11.773,-52.257 -11.773,-52.257 l 17.246,-14.325 50.949,61.336 z m 487.886,-87.363 c -1.636,-5.402 -5.507,-10.07 -10.636,-12.812 0,0 -2.825,-1.524 -4.969,-2.668 -2.125,3.957 -19.438,36.3 -21.559,40.265 2.164,1.153 4.973,2.657 4.973,2.657 5.105,2.742 11.133,3.378 16.531,1.746 5.668,-1.707 10.324,-5.711 13.473,-11.582 2.047,-3.817 3.082,-7.735 3.082,-11.563 0,-2.051 -0.301,-4.07 -0.895,-6.043 z m -14.132,34.258 c -6.731,2.031 -14.227,1.25 -20.555,-2.16 l -9.633,-5.145 26.547,-49.601 9.637,5.168 c 6.347,3.398 11.16,9.218 13.199,15.945 2.125,7.031 1.226,14.512 -2.594,21.641 -3.82,7.128 -9.558,12.023 -16.601,14.152 z m 191.632,99.226 c -5.128,-7.117 -15.718,-17.644 -28.984,-8.093 -5.668,4.082 -7.516,10.008 -5.977,19.226 l 0.165,1.575 -2.645,2.148 -1.621,-0.871 c -6.461,-3.777 -13.149,-3.797 -18.352,-0.059 -12.441,8.957 -5.226,21.817 -1.547,26.934 6.641,9.199 17.286,15.644 26.098,9.297 4.543,-3.27 8.742,-9.434 6.906,-16.903 l -0.468,-1.914 3.07,-1.855 1.48,0.683 c 9.004,5 14.086,3.602 19.809,-0.5 13.41,-9.656 7.051,-22.734 2.066,-29.668 z m 1.016,33.965 c -11.398,8.391 -21.23,2.657 -21.23,2.922 0,7.762 -4.622,14.004 -9.555,17.567 -11.777,8.468 -25.301,0.82 -33.477,-10.508 -9.461,-13.133 -8.402,-26.278 2.746,-34.317 10.579,-7.039 19.934,-1.992 19.899,-2.293 -0.074,-0.605 -0.153,-1.23 -0.153,-1.808 0,-7.832 2.872,-13.731 8.684,-17.918 12.231,-8.801 25.828,-5.324 36.363,9.305 10.286,14.316 9.063,28.164 -3.277,37.05 z m -10.004,-27.48 c -2.488,-3.438 -7.461,-5.262 -11.465,-2.371 l -0.011,0 c -2.594,1.855 -3.797,4.285 -3.797,7.937 0,0.891 0.16,2.16 0.3,3.196 5.645,3.847 10.114,4.558 13.723,1.961 4.356,-3.126 3.399,-7.735 1.25,-10.723 z m -19.004,12.453 -0.859,-0.625 -0.188,-1.055 c -0.277,-1.554 -0.507,-3.312 -0.507,-5.148 0,-4.238 1.234,-8.875 6,-12.293 5.988,-4.317 14.265,-2.746 18.843,3.574 4.567,6.356 3.551,13.797 -2.449,18.113 -5.781,4.161 -12.793,3.301 -20.84,-2.566 z m -8.789,8.758 c -4.859,-3.106 -8.828,-4.707 -11.961,-2.449 -4.035,2.898 -2.109,7.871 -0.332,10.339 1.141,1.582 2.57,2.551 4.137,2.805 1.644,0.262 3.418,-0.246 5.117,-1.465 l 0.012,-0.011 c 2.113,-1.512 3.226,-4.805 3.226,-7.684 0,-0.547 -0.117,-1.035 -0.199,-1.535 z m 0.051,13.515 c 0,0 0.008,0 0.008,-0.007 l -0.012,0.007 0.004,0 c -2.82,2.032 -6.035,2.891 -9.047,2.403 -2.984,-0.489 -5.609,-2.188 -7.586,-4.942 -3.91,-5.449 -4.637,-13.289 1.535,-17.722 7,-5.032 15.051,0.32 18.934,2.89 l 0.812,0.547 0.27,0.938 c 0.336,1.179 0.508,2.507 0.508,3.886 0,4.403 -1.739,9.356 -5.426,12 z m 72.059,39.922 c -0.891,-1.855 -2.125,-3.035 -3.778,-3.621 -2.375,-0.832 -5.605,-0.371 -9.066,1.297 l -0.004,0 c -3.985,1.914 -6.66,4.336 -7.535,6.836 -0.532,1.516 -0.395,3.066 0.41,4.727 0.793,1.66 1.926,2.726 3.476,3.273 2.532,0.898 6.153,0.371 9.954,-1.445 1.601,-0.774 9.464,-4.942 6.543,-11.067 z m -4.254,15.832 c -5.133,2.45 -10.102,3.047 -14.004,1.668 -2.864,-1.015 -5.102,-3.074 -6.485,-5.965 -0.824,-1.71 -1.242,-3.468 -1.242,-5.207 0,-1.199 0.207,-2.402 0.613,-3.562 1.723,-4.914 6.52,-8.067 10.239,-9.856 4.742,-2.285 9.394,-2.82 13.105,-1.523 2.957,1.035 5.309,3.223 6.797,6.328 3.199,6.699 -0.422,13.977 -9.023,18.117 z M 906.695,206.582 c -1.953,-2.012 -4.726,-4.863 -6.683,-6.875 -3.45,3.359 -43.27,42.117 -43.27,42.117 0,0 -1.34,-15.215 -1.668,-18.965 -2.383,0.286 -4.594,0.547 -6.886,0.821 0.382,4.074 2.124,22.668 2.273,24.238 0.883,0.898 4.555,4.668 6.703,6.875 3.395,-3.301 46.137,-44.91 49.531,-48.211 z m -61.324,43.68 -2.926,-31.231 17.414,-2.07 c 0,0 0.75,8.527 1.172,13.301 6.508,-6.328 39.086,-38.035 39.086,-38.035 l 14.051,14.453 -57.102,55.593 z M 673.82,62.9219 c -1.636,2.4765 -10.027,15.1992 -10.027,15.1992 l -32.879,-7.5703 c 0,0 -2.09,-15.1524 -2.492,-18.082 -1.981,-0.4493 -5.926,-1.3594 -9.484,-2.168 0.98,6.75 10.207,70.1482 10.675,73.3982 2.473,0.567 10.383,2.395 12.844,2.961 1.852,-2.715 38.004,-55.6717 41.863,-61.3202 -3.773,-0.871 -8.422,-1.9414 -10.5,-2.4179 z m -48.914,65.1131 -12.316,-84.6131 20.57,4.707 c 0,0 2.09,15.1602 2.488,18.0899 2.938,0.6718 22.805,5.2421 25.754,5.9218 1.637,-2.4804 10.024,-15.1914 10.024,-15.1914 l 21.636,4.9727 -48.269,70.6951 z m 369.981,205.274 c -6.649,-13.848 -18.918,-15.899 -38.621,-6.454 -10.825,5.204 -26.567,15.411 -26.567,30.711 0,3.586 0.863,7.454 2.852,11.594 2.015,4.395 6.781,10.41 7.25,10.41 0.156,-0.156 3.418,-2.226 5.465,-3.644 -2.34,-2.293 -4.707,-4.969 -6.598,-8.895 -1.313,-2.746 -1.957,-5.5 -1.957,-8.195 0,-8.008 5.652,-15.555 16.238,-21.16 l 0.922,-0.488 4.317,1.562 -1.43,2.684 c -2.637,4.582 -2.762,8.808 -0.418,13.703 5.246,10.898 14.848,13.984 26.332,8.465 9.918,-4.754 20.088,-13.875 12.215,-30.293 z m -9.926,35.058 c -14.086,6.77 -26.875,2.578 -33.387,-10.945 -1.453,-3.027 -2.179,-5.977 -2.179,-8.887 0,-0.93 0.636,-1.828 0.785,-2.754 -4.043,3.047 -8.164,7.41 -8.164,13.106 0,1.836 0.425,3.789 1.418,5.859 2.109,4.375 4.937,7.176 7.675,9.551 l 2.582,2.234 -14.648,10.117 -1.559,-1.543 c -4.023,-3.984 -7.195,-8.457 -9.699,-13.66 -9.113,-18.984 0.43,-36.992 26.192,-49.355 22.328,-10.703 37.695,-7.707 45.675,8.933 7.508,15.657 2.158,29.258 -14.691,37.344 z m 40.279,46.164 c 0,0 -3.09,-9.804 -5.2,-13.691 -2.05,0.586 -4.42,1.199 -7.22,2 2.13,2.988 4.41,6.555 5.73,11.574 0.54,2.02 0.84,4.199 0.84,6.367 0,6.66 -2.92,13.27 -11.41,15.496 -4.02,1.055 -7.71,0.625 -10.949,-1.269 -4.164,-2.442 -7.383,-7.344 -9.062,-13.809 0,-0.008 -1.543,-6.16 -1.543,-10.527 -4.727,1.328 -28.59,8.039 -32.602,9.172 1.082,4.129 8.367,31.953 9.473,36.16 2.035,-0.527 3.57,-0.926 5.609,-1.465 -1.101,-4.219 -7.222,-27.617 -7.222,-27.617 0,0 20.929,-5.867 20.929,-5.84 0,3.957 1.141,9.465 1.141,9.465 0.953,3.652 3.445,10.301 9.453,13.816 4.461,2.61 10.113,3.047 16.793,1.289 6.02,-1.57 10.69,-4.949 13.52,-9.785 2,-3.418 3.01,-7.469 3.01,-11.98 0,-2.942 -0.43,-6.075 -1.29,-9.356 z m -13.9,36.239 c -8.09,2.121 -15.09,1.503 -20.801,-1.836 -7.664,-4.493 -10.742,-12.606 -11.902,-17.051 0,0 -0.313,-2.117 -0.606,-4.082 -3.031,0.859 -7.211,2.031 -9.922,2.793 1.086,4.152 7.254,27.734 7.254,27.734 l -15.847,4.121 -12.121,-46.297 c 0,0 43.812,-12.382 44.515,-12.382 -1.172,7.91 1.176,16.093 1.176,16.093 1.324,5.106 3.672,8.856 6.617,10.575 2.017,1.183 4.287,1.417 6.937,0.722 9.4,-2.461 7.58,-12.41 6.8,-15.41 -1.42,-5.398 -4.42,-9.395 -6.6,-12.305 l -2.69,-3.445 18.54,-5.488 c 0,0 1.7,2.89 3.76,7.566 3.87,8.809 8.68,23.723 1.64,36.465 -3.56,6.066 -9.35,10.293 -16.75,12.227 z M 787.75,122.598 c -2.672,-8.84 -10.512,-16.778 -23.305,-23.6253 0,0 -12.031,-6.4336 -15.558,-8.3282 -2.235,4.1797 -30.407,56.7775 -32.641,60.9575 3.524,1.882 15.555,8.32 15.555,8.32 12.808,6.863 23.777,8.984 32.597,6.308 7.614,-2.296 14.055,-8.292 19.153,-17.812 3.511,-6.563 5.273,-12.734 5.273,-18.43 0,-2.558 -0.355,-5.027 -1.074,-7.39 z m -21.816,48.699 c -10.364,3.137 -22.329,0.937 -36.625,-6.707 l -20.223,-10.82 37.633,-70.2817 20.215,10.8164 c 14.277,7.6363 22.738,16.3863 25.878,26.7573 2.731,9.004 1.184,19.055 -4.605,29.856 -5.773,10.801 -13.273,17.656 -22.273,20.379 z M 708.105,74.4883 c -0.984,2.6328 -2.398,6.4023 -3.382,9.0312 2.621,0.9922 6.351,2.3867 8.972,3.375 0.993,-2.6445 2.403,-6.4062 3.395,-9.0351 -2.625,-0.9883 -6.356,-2.3906 -8.985,-3.3711 z m -10.187,12.1406 7.094,-18.957 18.886,7.0976 -7.105,18.9219 z m 122.875,46.0161 c -1.613,2.304 -3.918,5.605 -5.523,7.902 2.289,1.609 5.554,3.894 7.851,5.508 1.609,-2.305 3.914,-5.598 5.524,-7.903 -2.293,-1.601 -5.555,-3.894 -7.852,-5.507 z m -12.887,9.21 11.586,-16.574 16.516,11.582 -11.59,16.555 z M 50.2734,589.34 c 0.2383,3.652 1.3516,8.98 3.3125,13.848 1.9766,-0.297 3.7813,-0.7 6.5235,-1.118 -2.4336,-4.961 -3.1797,-9.547 -3.4258,-13.457 -0.0469,-0.695 -0.0664,-1.383 -0.0664,-2.062 0,-6.746 2.1914,-12.797 6.4062,-17.586 5.0547,-5.742 12.6719,-9.219 21.4454,-9.781 17.4222,-1.118 29.8512,9.32 30.9262,25.976 0.07,1.031 0.105,2.086 0.105,3.141 0,3.945 -0.578,7.64 -1.367,10.824 2.656,-0.035 4.562,-0.059 6.629,-0.082 1.07,-5.449 1.078,-14.297 1.078,-14.297 -1.563,-24.215 -15.031,-37.297 -36.9611,-35.891 -11.5273,0.743 -20.4219,4.571 -26.418,11.387 -5.4687,6.211 -8.3086,14.895 -8.3086,25.266 0,1.254 0.0391,2.535 0.1211,3.832 z M 84.543,543.582 c 24.906,-1.609 40.824,13.664 42.57,40.832 0,0 0.02,2.098 0.02,4.945 0,5.825 -1.59,14.829 -1.59,14.829 l -18.938,0.324 1.676,-3.77 c 1.407,-3.172 2.199,-9.719 1.84,-15.238 -0.887,-13.711 -10.8241,-21.969 -25.3124,-21.047 -7.3672,0.473 -13.6953,3.316 -17.8164,8 -3.6875,4.195 -5.4297,9.668 -5.0352,15.82 0.2657,4.168 1.0078,9.149 4.5391,14.524 l 2.2656,3.453 -18.5078,2.777 -0.8398,-1.781 C 47.0352,602.188 45.3867,595.617 45,589.684 c -0.8672,-13.508 2.418,-24.895 9.4922,-32.938 6.8594,-7.793 17.25,-12.344 30.0508,-13.164 z M 66.9844,679.801 c 5.6133,20.09 22.2578,28.898 43.4376,22.98 21.414,-5.976 31.234,-22.176 25.625,-42.273 -2.746,-9.824 -7.809,-16.867 -15.051,-20.938 -7.75,-4.359 -17.699,-5.031 -28.7694,-1.929 -17.3711,4.843 -26.8711,16.07 -26.8711,30.972 0,3.535 0.5351,7.274 1.6289,11.188 z m 23.8203,-47.254 c 12.4493,-3.485 23.7853,-2.649 32.7853,2.414 8.383,4.715 14.453,13.055 17.547,24.121 6.394,22.891 -5.11,42.039 -29.289,48.797 -23.9535,6.687 -43.5316,-3.774 -49.9574,-26.652 l -0.0039,-0.008 c -6.4765,-23.242 4.6016,-41.887 28.918,-48.672 z M 220.297,822.285 c -3.008,0.606 -61.063,12.363 -61.063,12.363 l -3.222,-3.343 c 0,0 40.008,-31.805 43.758,-34.801 -1.688,-2.121 -3.915,-4.902 -5.606,-7.024 -3.699,2.946 -50.371,40.133 -54.07,43.079 2.156,2.714 7.351,9.238 8.758,11.003 3.019,-0.613 61.086,-12.558 61.086,-12.558 l 2.89,3.547 c 0,0 -39.766,31.715 -43.516,34.695 1.688,2.125 3.907,4.93 5.606,7.051 3.699,-2.953 50.371,-40.137 54.082,-43.086 -2.16,-2.707 -7.297,-9.16 -8.703,-10.926 z m -46.219,61.445 -12.199,-15.324 c 0,0 26.476,-21.086 37.324,-29.734 -14.258,2.918 -52.461,10.723 -52.461,10.723 l -14.09,-17.676 62.344,-49.664 12.215,15.297 c 0,0 -26.523,21.113 -37.371,29.757 14.226,-2.882 52.578,-10.656 52.578,-10.656 l 14.012,17.606 z m 438.641,79.961 c -1.039,2.891 -21.121,58.619 -21.121,58.619 l -4.532,1.01 c 0,0 -6.421,-50.699 -7.031,-55.465 -2.691,0.348 -6.23,0.805 -8.918,1.153 0.598,4.691 8.16,63.882 8.762,68.582 3.441,-0.44 11.707,-1.5 13.957,-1.79 1.039,-2.89 20.965,-58.726 20.965,-58.726 l 4.531,-0.625 c 0,0 6.465,50.441 7.074,55.201 2.692,-0.34 6.235,-0.79 8.93,-1.14 -0.598,-4.69 -8.156,-63.885 -8.758,-68.58 -3.433,0.433 -11.617,1.476 -13.859,1.761 z m 28.535,71.399 -19.426,2.48 c 0,0 -4.285,-33.58 -6.047,-47.347 -4.906,13.707 -18.062,50.417 -18.062,50.417 l -22.422,2.86 -10.098,-79.062 19.414,-2.5 c 0,0 4.289,33.632 6.043,47.382 4.926,-13.656 18.188,-50.465 18.188,-50.465 l 22.312,-2.843 z M 374.43,936.199 c -1.696,4.43 -23.024,60.145 -24.719,64.561 2.625,1.01 6.379,2.45 9.004,3.46 1.738,-4.532 22.43,-58.568 22.43,-58.568 0,0 22.898,8.786 26.972,10.348 0.805,-2.098 1.496,-3.91 2.305,-6.012 -4.082,-1.562 -31.91,-12.226 -35.992,-13.789 z m 36.734,26.625 c 0,0 -22.898,-8.773 -26.973,-10.336 -1.734,4.532 -22.429,58.562 -22.429,58.562 l -18.875,-7.24 28.496,-74.435 45.875,17.566 z M 78.2852,676.641 c 3.625,12.984 17.3203,14.125 27.9448,11.16 4.879,-1.367 19.27,-6.457 19.27,-18.992 0,-1.594 -0.234,-3.301 -0.75,-5.137 -1.293,-4.629 -3.816,-8.027 -7.5,-10.098 -5.105,-2.879 -12.703,-3.219 -20.8398,-0.941 -10.625,2.969 -21.7461,11.035 -18.125,24.008 z m 16.6992,-29.102 c 9.6176,-2.691 18.4456,-2.184 24.8596,1.426 4.953,2.789 8.316,7.254 10,13.281 l 0.004,0.004 c 4.66,16.719 -8.407,26.793 -22.192,30.641 -14.0037,3.91 -30.0857,0.843 -34.4685,-14.825 -4.3633,-15.664 7.8047,-26.617 21.7969,-30.527 z M 486.617,1035.96 c 0.317,-4.64 2.762,-40.23 2.762,-40.23 0.613,-8.906 2.949,-15.007 7.148,-18.671 3.215,-2.797 7.434,-4.036 12.551,-3.68 5.106,0.348 9.11,2.148 11.91,5.355 3.117,3.578 4.653,8.746 4.653,15.723 0,1.195 -2.895,43.993 -2.895,43.993 l 9.598,0.66 c 0,0 3.203,-46.895 3.203,-47.895 0,-6.797 -1.688,-12.18 -5.039,-16.024 -4.172,-4.796 -11.238,-7.57 -20.996,-8.246 -18.887,-1.293 -28.242,6.196 -29.434,23.547 0,0 -2.418,35.038 -3.09,44.818 2.801,0.19 6.824,0.46 9.629,0.65 z m 23.258,-74.284 c 11.203,0.769 19.492,4.148 24.621,10.043 4.797,5.508 6.887,13.226 6.219,22.949 l -3.457,50.082 -20.149,-1.39 3.121,-45.512 c 0.508,-7.336 -0.582,-12.598 -3.234,-15.637 -1.863,-2.145 -4.57,-3.305 -8.281,-3.559 -3.719,-0.254 -6.57,0.528 -8.715,2.399 -3.043,2.648 -4.844,7.715 -5.348,15.043 l -3.125,45.506 -20.183,-1.38 3.461,-50.087 c 1.402,-20.383 13.199,-29.957 35.07,-28.457 z M 239.691,936.512 c 1.454,-1.719 2.704,-3.192 4.153,-4.907 -3.324,-2.824 -22.11,-18.765 -22.11,-18.765 l 15.282,-18.012 c 0,0 16.968,14.399 20.242,17.172 1.453,-1.719 2.715,-3.207 4.168,-4.926 -3.266,-2.769 -20.254,-17.168 -20.254,-17.168 l 16.937,-19.976 c 0,0 18.942,16.07 22.278,18.902 1.461,-1.719 2.718,-3.203 4.175,-4.922 -3.339,-2.832 -26.308,-22.301 -29.648,-25.129 -3.062,3.617 -41.648,49.133 -44.715,52.746 3.34,2.828 26.153,22.161 29.492,24.985 z M 292.012,883.297 281,896.281 c 0,0 -18.938,-16.066 -22.273,-18.898 -2.239,2.633 -7.872,9.277 -10.102,11.91 3.27,2.773 20.254,17.168 20.254,17.168 l -11.008,13 c 0,0 -16.973,-14.402 -20.238,-17.184 -2.086,2.457 -6.363,7.496 -8.449,9.953 3.332,2.829 22.109,18.758 22.109,18.758 l -10.984,12.977 -37.559,-31.82 51.547,-60.813 z M 93.4414,750.516 c 1.6719,3.296 6.6016,13.027 6.6016,13.027 4.48,8.863 9.539,18.887 16.934,21.621 0.136,0.051 0.273,0.098 0.418,0.145 3.636,1.195 7.691,0.617 12.394,-1.758 6.883,-3.485 9.766,-10.832 7.176,-18.289 l -0.789,-2.188 4.551,-2.133 1.183,1.977 c 1.078,1.781 3.637,2.516 8.035,2.312 -0.062,0 19.024,-1.519 27.344,-2.175 -1.777,-3.516 -3.953,-7.825 -4.922,-9.707 -3.094,0.312 -22.969,2.316 -22.969,2.316 -3.035,0.313 -5.519,0.293 -7.664,-0.5 -2.531,-0.937 -4.582,-2.93 -6.476,-6.687 l -3.383,-6.641 c 0,0 23.637,-11.969 27.59,-13.957 -1.27,-2.516 -3.082,-6.094 -4.356,-8.602 -4.226,2.137 -57.4371,29.102 -61.6676,31.239 z m 73.1246,-20.313 c 0,0 -23.621,11.961 -27.578,13.957 0.489,0.957 0.977,1.93 0.977,1.93 1.203,2.355 2.219,3.582 3.687,4.125 1.266,0.469 2.864,0.437 5.211,0.195 l 26.59,-2.691 10.129,19.98 -35.305,2.797 c -1.406,0.07 -4.382,0.117 -7.265,-0.769 0.328,7.722 -3.559,14.863 -10.828,18.539 -5.938,3.004 -11.469,3.695 -16.446,2.066 -9.703,-3.184 -15.39,-14.453 -20.4138,-24.406 l -8.9922,-17.731 71.102,-36.023 z m -55.918,28.313 c 0.508,1.004 1.028,2.031 1.028,2.031 1.98,3.914 4.402,8.055 7.351,9.141 0.055,0.027 0.11,0.046 0.168,0.062 1.387,0.453 2.918,0.234 4.707,-0.668 4.938,-2.512 5.2,-6.777 0.938,-15.207 0,0 -0.52,-1.02 -1.02,-2.02 -3.019,1.524 -10.156,5.137 -13.172,6.661 z m 15.653,15.281 c -3.067,1.555 -6.008,1.883 -8.758,0.973 -4.844,-1.586 -7.953,-6.625 -10.59,-11.836 l -3.402,-6.743 22.586,-11.445 3.418,6.738 c 2.05,4.063 8.3,16.426 -3.254,22.313 z m 766.543,124.269 c 2.508,-2.707 9.926,-10.707 9.926,-10.707 6.761,-7.273 14.414,-15.492 14.414,-23.375 0,-0.148 -0.004,-0.293 -0.012,-0.441 -0.141,-3.828 -2.082,-7.43 -5.945,-11.02 -5.649,-5.25 -13.539,-5.406 -19.641,-0.39 l -1.777,1.496 -3.575,-3.531 1.446,-1.793 c 1.297,-1.629 1.093,-4.282 -0.625,-8.34 0.027,0.058 -8.012,-17.32 -11.512,-24.899 -2.68,2.887 -5.969,6.426 -7.402,7.981 1.367,2.801 10.136,20.742 10.136,20.742 1.348,2.742 2.188,5.082 2.188,7.367 0,2.696 -1.164,5.309 -4.027,8.395 l -5.059,5.469 c 0,0 -19.422,-18.028 -22.656,-21.04 -1.914,2.059 -4.649,5.004 -6.559,7.063 3.473,3.223 47.203,43.801 50.68,47.023 z m -44.406,-61.558 c 0,0 19.41,18.019 22.656,21.031 0.722,-0.781 1.465,-1.582 1.465,-1.582 1.8,-1.945 2.597,-3.316 2.597,-4.883 0,-1.347 -0.586,-2.84 -1.625,-4.957 0,-0.004 -11.738,-24.008 -11.738,-24.008 l 15.234,-16.425 14.86,32.14 c 0.551,1.297 1.625,4.074 1.797,7.086 7.121,-2.98 15.168,-1.808 21.14,3.738 4.875,4.532 7.442,9.477 7.633,14.707 0.375,10.204 -8.227,19.446 -15.816,27.606 l -13.516,14.582 -58.434,-54.215 z M 285.074,967.441 c 2.481,-4.171 32.059,-53.882 32.059,-53.882 0,0 21.086,12.539 24.836,14.769 1.152,-1.933 2.144,-3.601 3.297,-5.535 -3.758,-2.238 -29.364,-17.469 -33.118,-19.699 -2.421,4.074 -32.937,55.344 -35.367,59.414 2.418,1.441 5.879,3.496 8.293,4.933 z m 67.446,-46.484 -8.715,14.617 c 0,0 -21.075,-12.539 -24.828,-14.769 -2.481,4.172 -32.059,53.883 -32.059,53.883 l -17.383,-10.333 40.777,-68.507 z M 999.492,739.652 c -4.351,-1.871 -59.187,-25.414 -63.539,-27.281 -1.109,2.578 -2.699,6.27 -3.812,8.856 4.359,1.867 59.199,25.41 63.554,27.277 1.106,-2.582 2.688,-6.27 3.797,-8.852 z m -66.304,-34.222 73.252,31.449 -7.971,18.57 L 925.188,724 Z m 81.322,-4.653 c 1.16,-4.433 12.09,-46.172 13.25,-50.601 -2.17,-0.571 -4.06,-1.067 -6.24,-1.637 -1.02,3.926 -5.41,20.637 -5.41,20.637 0,0 -55.942,-14.656 -60.637,-15.887 -0.711,2.723 -1.731,6.613 -2.45,9.336 4.696,1.227 60.657,15.887 60.657,15.887 0,0 -4.37,16.707 -5.4,20.629 2.17,0.57 4.06,1.062 6.23,1.636 z m -7.29,-18.488 c -4.69,-1.23 -60.654,-15.894 -60.654,-15.894 l 5.137,-19.559 c 0,0 55.947,14.652 60.637,15.883 1.03,-3.926 5.41,-20.633 5.41,-20.633 l 16.47,4.309 -15.93,60.835 -16.46,-4.312 c 0,0 4.37,-16.707 5.39,-20.629 z M 663.418,952.398 c 1.336,4.543 18.144,61.802 19.477,66.352 2.695,-0.79 6.554,-1.93 9.25,-2.71 -1.333,-4.55 -18.141,-61.813 -19.473,-66.364 -2.695,0.793 -6.559,1.929 -9.254,2.722 z m 35.289,67.222 -19.395,5.69 -22.457,-76.498 19.399,-5.699 z M 926.398,770.922 c 6.723,4.191 5.278,12.055 3.879,19.668 -1.711,9.34 -3.484,19 6.891,25.437 4.922,3.063 9.77,4.067 14.414,2.981 5.563,-1.305 10.879,-5.645 14.965,-12.231 2.891,-4.644 4.922,-9.269 6.223,-13.828 -2.043,-0.972 -3.821,-1.691 -6.055,-2.754 -1.027,4.336 -2.707,8.453 -4.965,12.094 -3.508,5.625 -10.484,10.402 -18.609,5.363 -6.137,-3.816 -4.692,-11.324 -3.301,-18.59 1.844,-9.609 3.754,-19.535 -7.043,-26.246 -4.707,-2.929 -9.367,-3.882 -13.856,-2.836 -7.476,1.747 -13.003,8.497 -16.324,13.84 -3.64,5.856 -4.812,9.313 -6.648,14.985 1.965,0.957 3.937,1.918 6.593,3.207 0.661,-3.653 2.536,-9.965 5.051,-14.047 4.067,-6.535 12.032,-11.211 18.785,-7.043 z m -14.289,9.824 c -2.664,4.324 -4.254,9.684 -4.586,15.488 l -0.226,3.965 -17.793,-8.664 1.195,-3.695 c 2.051,-6.328 3.285,-10.145 7.426,-16.805 5.512,-8.89 12.297,-14.492 19.613,-16.203 5.907,-1.383 11.926,-0.203 17.852,3.492 13.883,8.621 11.32,21.977 9.445,31.735 -1.332,6.949 -2.008,11.296 0.895,13.097 5.675,3.524 9.519,-0.785 11.328,-3.66 2.472,-3.988 4.172,-8.672 4.91,-13.547 l 0.527,-3.519 16.289,7.734 -0.492,2.082 c -1.351,5.719 -3.863,11.547 -7.449,17.32 -4.836,7.786 -11.316,12.965 -18.254,14.586 -6.059,1.418 -12.258,0.203 -18.414,-3.629 -13.434,-8.347 -11.039,-21.375 -9.297,-30.89 1.363,-7.403 2.016,-12.047 -1.465,-14.215 -4.304,-2.66 -9.34,1.867 -11.504,5.328 z m 82.309,-197.351 c 0,0 33.552,23.328 39.942,27.765 0.28,-4.406 0.6,-9.426 0.71,-11.238 -2.37,-1.543 -32.67,-21.25 -32.67,-21.25 0,0 32.62,-16.016 35.15,-17.258 0.1,-1.68 0.36,-5.605 0.6,-9.59 -6.86,3.496 -43.13,21.949 -43.13,21.949 l -27.446,-1.757 -0.621,9.621 z m -33.078,3.179 1.293,-20.172 c 0,0 29.906,1.914 31.285,2 1.254,-0.64 50.102,-25.492 50.102,-25.492 l -1.39,21.902 c 0,0 -23.21,11.395 -29.54,14.504 5.91,3.84 27.46,17.86 27.46,17.86 l -1.52,23.683 c 0,0 -45.241,-31.464 -46.417,-32.281 -1.402,-0.094 -31.273,-2.004 -31.273,-2.004 z M 824.434,953.637 c 3.531,-2.578 27.668,-20.219 31.191,-22.797 -1.324,-1.817 -2.461,-3.379 -3.785,-5.195 -3.528,2.578 -23.422,17.093 -23.422,17.093 L 814.473,923.66 c 0,0 17.988,-13.129 21.449,-15.652 -1.32,-1.817 -2.465,-3.391 -3.793,-5.207 -3.461,2.531 -21.453,15.664 -21.453,15.664 L 795.23,897.312 c 0,0 20.059,-14.64 23.59,-17.226 -1.328,-1.816 -2.472,-3.383 -3.8,-5.195 -3.532,2.578 -27.829,20.332 -31.364,22.918 2.801,3.82 37.981,52 40.778,55.828 z m -8.262,-86.137 10.039,13.738 c 0,0 -20.059,14.649 -23.59,17.227 2.031,2.789 7.172,9.824 9.207,12.609 3.461,-2.523 21.457,-15.664 21.457,-15.664 l 10.02,13.75 c 0,0 -17.977,13.125 -21.438,15.652 1.899,2.606 5.805,7.942 7.703,10.543 3.528,-2.578 23.422,-17.105 23.422,-17.105 l 10.016,13.742 -39.727,29.035 -47.011,-64.375 z m 78.207,11.648 c 0.769,-0.824 1.551,-1.66 1.551,-1.66 2.988,-3.215 6.027,-6.922 6.027,-10.066 0,-0.059 0,-0.117 -0.004,-0.176 -0.055,-1.457 -0.789,-2.824 -2.254,-4.184 -4.07,-3.761 -8.16,-2.531 -14.59,4.395 0,0 -0.777,0.832 -1.543,1.652 2.477,2.301 8.34,7.746 10.813,10.039 z m 8.906,-19.968 c 2.52,2.34 3.848,4.98 3.953,7.871 0.188,5.097 -3.465,9.761 -7.437,14.039 l -5.149,5.531 -18.558,-17.226 5.136,-5.54 c 3.102,-3.332 12.532,-13.48 22.055,-4.675 z m -177.992,70.632 c 0.387,3.399 7.516,66.122 8.258,72.638 3.328,-1.59 7.371,-3.509 9.344,-4.454 -0.372,-2.859 -7.833,-60.687 -7.833,-60.687 l 3.516,-2.067 1.422,1.438 c 0,0 38.375,40.632 40.852,43.261 1.878,-0.894 5.214,-2.48 8.324,-3.961 -4.535,-4.683 -48.34,-49.945 -50.738,-52.421 -2.434,1.164 -10.719,5.097 -13.145,6.253 z m 72.797,47.782 -18.442,8.773 c 0,0 -29.964,-31.73 -38.132,-40.383 1.523,11.789 7.113,55.136 7.113,55.136 l -19.492,9.3 -9.528,-83.76 19.993,-9.508 58.488,60.442"
             inkscape:connector-curvature="0" /><path
             id="path66"
             style="fill:#B31B1B;fill-opacity:1;fill-rule:nonzero;stroke:none"
             d="m 503.98,672.027 c -0.132,-3.453 -0.527,-11.125 -13.843,-21.511 l 0,80.398 13.902,0 c 0.016,-10.602 0.02,-20.848 0.02,-29.734 0,-16.289 -0.024,-28 -0.079,-29.153 z m -73.449,-57.531 c -0.73,0.453 -3.222,1.992 -6.695,4.141 l 0,112.277 14.117,0 0,-112.297 c -3.125,-1.75 -5.793,-3.226 -7.422,-4.121 z m -72.609,57.277 c -0.094,1.782 -0.125,24.321 -0.125,51.051 0,2.653 0,5.383 0,8.09 l 13.855,0 0,-79.246 c -8.582,6.894 -13.238,13.641 -13.73,20.105 z m 43.812,59.141 14.121,0 0,-107.34 c -4.406,2.719 -9.308,5.75 -14.121,8.731 z m -22.105,0 14.125,0 0,-93.68 c -6.356,3.938 -11.625,7.196 -14.125,8.743 z m 80.426,0 0,-99.617 c -4.957,-2.918 -9.785,-5.711 -14.121,-8.18 l 0,107.797 z m 22.105,-85.992 c -4.41,-2.883 -9.187,-5.863 -14.129,-8.86 l 0,94.852 14.129,0 z m 21.82,130.25 c 0.02,-11.481 0.04,-24.254 0.055,-36.809 l -146.23,0 c 0.004,12.571 0.007,25.297 0.023,36.809 7.817,0 138.34,0 146.152,0 z m 8.497,8.516 -163.157,0 c 0,0 -0.121,-109.333 0.086,-112.227 0.332,-4.309 1.25,-16.414 23.875,-31.563 l 57.074,-35.304 2.083,1.234 c 0.355,0.195 36.054,19.621 57.605,34.07 19.566,13.106 22.156,23.946 22.402,30.957 0.231,3.504 0.032,112.833 0.032,112.833"
             inkscape:connector-curvature="0" /><path
             id="path68"
             style="fill:#B31B1B;fill-opacity:1;fill-rule:nonzero;stroke:none"
             d="m 709.133,646.969 c -0.039,-0.028 -0.09,-0.055 -0.129,-0.086 l -59.859,0 0,-7.449 48.21,0 c -16.988,-10.528 -36.667,-21.469 -42.976,-24.938 -3.742,2.316 -52.524,32.473 -52.524,32.473 -12.734,8.527 -19.496,16.875 -20.101,24.804 -0.02,0.364 -0.035,1.645 -0.051,3.661 l 15.125,0 -2.223,-7.372 26.625,0 c 0,0 0.149,1.282 0.387,3.391 l 24.317,0 c 0.648,-3.808 1.082,-6.383 1.156,-6.808 l -52.52,0 3,-7.368 72.25,0 c 0.141,0.051 9.813,7.368 9.813,7.368 l -31.805,0 30.192,7.058 -2.84,3.731 52.664,0 c -0.012,-1.852 -0.028,-3.055 -0.047,-3.387 -0.141,-3.852 -0.438,-12.859 -18.664,-25.078 z m -122.692,128.203 47.176,-24.449 2.942,5.664 -36.235,18.785 c 9.114,0 20.746,0 33.313,0 l 9.636,-15.5 5.418,3.371 -7.539,12.129 c 8.844,0 17.953,0 26.801,0 l -7.387,-11.695 5.403,-3.411 9.543,15.106 c 12.773,0 24.601,0 33.82,0 l -35.461,-18.434 2.949,-5.664 46.36,24.098 c 2.328,0 3.965,0 4.632,0 0.016,-9.664 0.036,-20.246 0.043,-30.84 l -46.738,0 0,-6.387 46.75,0 c 0.004,-5.359 0.008,-10.656 0.008,-15.808 l -25.34,-11.836 -31.156,19.929 c 1.426,2.645 2.238,5.59 2.238,8.645 0,10.105 -8.222,18.324 -18.324,18.324 -10.102,0 -18.324,-8.219 -18.324,-18.324 0,-1.984 0.41,-3.91 1.031,-5.77 l -35.812,-14.312 -20.567,13.301 c 0,1.937 0,3.894 0,5.851 l 47.867,0 0,6.387 -47.863,0 c 0,10.598 0.012,21.152 0.016,30.84 0.687,0 2.375,0 4.8,0 z m 141.442,-81.082 -17.922,11.461 17.922,8.371 c 0.004,-3.567 0.004,-16.852 0,-19.832 z m -84.227,44.785 c 0,6.418 5.223,11.637 11.637,11.637 6.418,0 11.637,-5.219 11.637,-11.637 0,-1.762 -0.524,-3.422 -1.274,-4.984 l -9.883,6.32 -11.621,-4.645 c -0.316,1.071 -0.496,2.176 -0.496,3.309 z M 617.633,683.57 c -0.559,-4.918 -0.996,-8.758 -1.156,-10.187 -2.997,0 -10.5,0 -14.715,0 0.613,2.019 1.808,5.984 3.074,10.187 z m -10.875,6.387 c 1.164,3.855 2.148,7.137 2.492,8.273 2.246,0 6.586,0 10.047,0 -0.317,-2.804 -0.641,-5.609 -0.942,-8.273 z m 17.894,8.25 c 0.614,5.375 1.102,9.703 1.246,10.977 3.086,0 10.684,0 13.629,0 0.196,-1.168 0.934,-5.489 1.864,-10.977 z m 17.825,-6.387 c 0.789,-4.664 1.625,-9.59 2.371,-13.98 l -22.508,0 c 0.476,4.191 1.039,9.172 1.586,13.98 z m 9.207,14.485 c 0,0 -3.879,-1.793 -5.813,-2.688 -0.465,2.738 -1.851,10.891 -1.851,10.891 l -22.875,0 c 0,0 -0.918,-8.113 -1.243,-10.953 -3.765,0 -14.609,0 -14.609,0 l -6.227,-20.668 -17.394,0 c -0.031,9.515 -0.047,24.172 -0.051,40.34 l 12.09,-7.825 -8.512,-3.394 2.766,-6.914 c 0,0 63.64,25.429 67.015,26.773 3.086,-1.969 72.817,-46.57 72.817,-46.57 l 0.078,0.121 c -0.004,-0.887 -0.004,-1.723 -0.004,-2.531 l -58.363,0 z m 17.125,-31.289 c -4.805,-1.125 -13.875,-3.243 -17.391,-4.067 -0.547,3.227 -2.613,15.387 -4.625,27.235 1.395,0.644 2.008,0.925 3.242,1.5 2.031,-2.668 15.086,-19.832 18.774,-24.668 z m 67.5,108.672 -163.172,0 c 0,0 -0.098,-109.329 0.101,-112.219 0.332,-4.317 1.25,-16.422 23.875,-31.571 l 57.098,-35.304 c 0,0 38.117,20.855 59.668,35.304 19.578,13.129 22.152,23.969 22.387,30.977 0.242,3.406 0.043,112.813 0.043,112.813"
             inkscape:connector-curvature="0" /></g></g></g></g></svg>