<svg xmlns="http://www.w3.org/2000/svg" xmlns:xlink="http://www.w3.org/1999/xlink" width="500" zoomAndPan="magnify" viewBox="0 0 375 374.999991" height="500" preserveAspectRatio="xMidYMid meet" version="1.0"><defs><clipPath id="id1"><path d="M 156 124 L 343.921875 124 L 343.921875 375 L 156 375 Z M 156 124 " clip-rule="nonzero"/></clipPath><clipPath id="id2"><path d="M 31.171875 125 L 110 125 L 110 141 L 31.171875 141 Z M 31.171875 125 " clip-rule="nonzero"/></clipPath></defs><g clip-path="url(#id1)"><path fill="rgb(100%, 100%, 100%)" d="M 164.101562 375 C 163.351562 375 162.585938 374.890625 161.835938 374.671875 C 158.554688 373.671875 156.289062 370.625 156.289062 367.1875 L 156.289062 132.8125 C 156.289062 129.796875 158.023438 127.046875 160.757812 125.75 C 163.476562 124.453125 166.695312 124.84375 169.042969 126.75 L 340.96875 267.375 C 343.53125 269.46875 344.5 272.9375 343.375 276.046875 C 342.265625 279.171875 339.328125 281.25 336.027344 281.25 L 230.808594 281.25 L 170.605469 371.515625 C 169.121094 373.734375 166.664062 375 164.101562 375 Z M 171.917969 149.296875 L 171.917969 341.375 L 220.117188 269.09375 C 221.574219 266.921875 224.011719 265.625 226.621094 265.625 L 314.148438 265.625 Z M 171.917969 149.296875 " fill-opacity="1" fill-rule="nonzero"/></g><path fill="rgb(100%, 100%, 100%)" d="M 164.101562 78.125 C 159.789062 78.125 156.289062 74.625 156.289062 70.3125 L 156.289062 7.8125 C 156.289062 3.5 159.789062 0 164.101562 0 C 168.417969 0 171.917969 3.5 171.917969 7.8125 L 171.917969 70.3125 C 171.917969 74.625 168.417969 78.125 164.101562 78.125 Z M 164.101562 78.125 " fill-opacity="1" fill-rule="nonzero"/><g clip-path="url(#id2)"><path fill="rgb(100%, 100%, 100%)" d="M 101.582031 140.625 L 39.066406 140.625 C 34.75 140.625 31.25 137.125 31.25 132.8125 C 31.25 128.5 34.75 125 39.066406 125 L 101.582031 125 C 105.898438 125 109.398438 128.5 109.398438 132.8125 C 109.398438 137.125 105.898438 140.625 101.582031 140.625 Z M 101.582031 140.625 " fill-opacity="1" fill-rule="nonzero"/></g><path fill="rgb(100%, 100%, 100%)" d="M 289.140625 140.625 L 226.621094 140.625 C 222.308594 140.625 218.804688 137.125 218.804688 132.8125 C 218.804688 128.5 222.308594 125 226.621094 125 L 289.140625 125 C 293.453125 125 296.953125 128.5 296.953125 132.8125 C 296.953125 137.125 293.453125 140.625 289.140625 140.625 Z M 289.140625 140.625 " fill-opacity="1" fill-rule="nonzero"/><path fill="rgb(100%, 100%, 100%)" d="M 119.902344 96.421875 C 117.902344 96.421875 115.898438 95.65625 114.367188 94.140625 L 70.152344 49.953125 C 67.105469 46.90625 67.105469 41.953125 70.152344 38.90625 C 73.199219 35.859375 78.15625 35.859375 81.203125 38.90625 L 125.417969 83.09375 C 128.464844 86.140625 128.464844 91.09375 125.417969 94.140625 C 123.902344 95.671875 121.902344 96.421875 119.902344 96.421875 Z M 119.902344 96.421875 " fill-opacity="1" fill-rule="nonzero"/><path fill="rgb(100%, 100%, 100%)" d="M 75.683594 229.015625 C 73.683594 229.015625 71.683594 228.25 70.152344 226.734375 C 67.105469 223.6875 67.105469 218.734375 70.152344 215.6875 L 114.367188 171.5 C 117.417969 168.453125 122.371094 168.453125 125.417969 171.5 C 128.464844 174.546875 128.464844 179.5 125.417969 182.546875 L 81.203125 226.71875 C 79.6875 228.25 77.6875 229.015625 75.683594 229.015625 Z M 75.683594 229.015625 " fill-opacity="1" fill-rule="nonzero"/><path fill="rgb(100%, 100%, 100%)" d="M 208.304688 96.421875 C 206.300781 96.421875 204.300781 95.65625 202.769531 94.140625 C 199.722656 91.09375 199.722656 86.140625 202.769531 83.09375 L 246.988281 38.90625 C 250.035156 35.859375 254.988281 35.859375 258.035156 38.90625 C 261.085938 41.953125 261.085938 46.90625 258.035156 49.953125 L 213.820312 94.140625 C 212.304688 95.671875 210.304688 96.421875 208.304688 96.421875 Z M 208.304688 96.421875 " fill-opacity="1" fill-rule="nonzero"/></svg>